<?xml version="1.0" encoding="UTF-8"?>
<svg xmlns="http://www.w3.org/2000/svg" version="1.2" width="1000" height="1000" baseProfile="tiny-ps" viewBox="0 0 1000 1000">
  <path d="M0 0 C2.94784868 2.04653833 4.73313456 3.67708076 5.46032906 7.28196716 C5.6459274 10.21366474 5.66382929 13.10742403 5.63110352 16.04492188 C5.64183647 17.7164608 5.64183647 17.7164608 5.65278625 19.42176819 C5.66969185 23.10451273 5.65025798 26.78604325 5.62890625 30.46875 C5.62973477 33.02795513 5.63219349 35.5871602 5.63621521 38.1463623 C5.63907452 43.50969872 5.62488807 48.87260563 5.59692383 54.23583984 C5.56487295 60.43048566 5.56488844 66.62450189 5.5821386 72.81919241 C5.59801995 78.78598288 5.59116201 84.75258066 5.57420158 90.71937561 C5.56901594 93.25512679 5.56950618 95.79089609 5.57574654 98.3266449 C5.58119277 101.86985353 5.56084033 105.41199146 5.53344727 108.95507812 C5.54323608 110.52933311 5.54323608 110.52933311 5.55322266 112.13539124 C5.49478701 116.57749478 5.44450879 119.25309494 3.13853455 123.12780762 C0.30030903 125.61254849 -1.22328928 126 -5 126 C-7.79767948 125.19705589 -10.31529887 124.15719876 -13 123 C-12.32195313 123.64324219 -11.64390625 124.28648437 -10.9453125 124.94921875 C13.86454692 149.03746176 29.69272263 180.82084684 30.29248047 215.79321289 C30.51165139 252.26913469 18.26316201 283.64790859 -7 310 C-7.76828125 310.83144531 -8.5365625 311.66289063 -9.328125 312.51953125 C-15.55610754 319.05891292 -22.38352456 324.21829066 -30 329 C-30.89283691 329.57065186 -30.89283691 329.57065186 -31.80371094 330.15283203 C-60.51665482 348.26372279 -96.55591622 353.63341682 -129.49414062 346.19921875 C-147.0999649 341.91831024 -161.6185757 335.91896044 -176.56640625 325.5390625 C-178.80181786 323.82183223 -178.80181786 323.82183223 -181 324 C-182.4126175 326.07701342 -183.68552395 328.1400655 -184.9375 330.3125 C-185.33227539 330.984021 -185.72705078 331.65554199 -186.13378906 332.34741211 C-187.43109653 334.56006453 -188.71662868 336.77923863 -190 339 C-190.8606668 340.48438096 -191.72134394 341.96875593 -192.58203125 343.453125 C-193.92963549 345.77951547 -195.27553655 348.10683448 -196.61743164 350.43652344 C-199.18666175 354.89241341 -201.78274352 359.33044906 -204.4140625 363.75 C-204.98995117 364.71800537 -205.56583984 365.68601074 -206.15917969 366.68334961 C-207.26881776 368.54532482 -208.38126059 370.40563266 -209.49707031 372.26391602 C-212.50480287 377.31341813 -215.2510834 382.41711382 -217.83837891 387.69360352 C-219.48348807 390.95996465 -221.33422375 394.07436359 -223.25 397.1875 C-225.66101572 401.11755692 -228.04496477 405.04433587 -230.265625 409.0859375 C-234.27303652 416.2891329 -237.94412326 422.84899286 -246 426 C-251.40013909 427.06074161 -255.23107516 425.50324707 -259.80859375 422.72265625 C-266.41292633 417.53101513 -270.12145682 409.18864358 -274.15820312 401.96313477 C-275.81500819 399.00761091 -277.491314 396.18235564 -279.5625 393.5 C-282.3149982 389.84219509 -284.14949598 385.76156425 -286.14624023 381.65820312 C-289.2847803 375.28327682 -292.95016762 369.28076893 -296.65332031 363.22265625 C-299.30923551 358.83914429 -301.89887205 354.41615731 -304.5 350 C-309.62651503 341.30893746 -314.79074964 332.64170215 -320 324 C-321.00417969 324.65226562 -322.00835937 325.30453125 -323.04296875 325.9765625 C-353.616124 345.61273467 -388.53364397 354.36947467 -424.625 346.875 C-448.58678873 341.44048816 -468.05080123 331.42368412 -486.9375 315.7890625 C-487.81728516 315.06130615 -487.81728516 315.06130615 -488.71484375 314.31884766 C-490 313 -490 313 -490 311 C-490.99 310.67 -491.98 310.34 -493 310 C-509.15308747 295.13230411 -520.82647523 272.04336657 -526 251 C-526.47373047 249.29070312 -526.47373047 249.29070312 -526.95703125 247.546875 C-534.56038141 215.46698663 -527.71026497 180.96481715 -511 153 C-505.79561018 144.7144534 -500.01978394 137.51224431 -493.28515625 130.4609375 C-490.90157436 128.02535779 -490.90157436 128.02535779 -489 125 C-490.051875 125.495 -490.051875 125.495 -491.125 126 C-494.35640675 127.12396756 -496.60142766 127.36155025 -500 127 C-503.1359157 125.22015595 -503.84102736 124.47691793 -505 121 C-505.10657388 119.46353154 -505.15906466 117.92300381 -505.17840576 116.38296509 C-505.19253006 115.43526749 -505.20665436 114.48756989 -505.22120667 113.51115417 C-505.23167526 112.47316177 -505.24214386 111.43516937 -505.25292969 110.36572266 C-505.26764816 109.27116257 -505.28236664 108.17660248 -505.29753113 107.0488739 C-505.34451331 103.42064705 -505.38383889 99.79239357 -505.421875 96.1640625 C-505.43573494 94.92637493 -505.44959488 93.68868736 -505.46387482 92.41349411 C-505.52958996 86.54077078 -505.59176789 80.66802888 -505.64805388 74.79520857 C-505.71303246 68.01966706 -505.79116368 61.24444652 -505.88073611 54.46918643 C-505.95747089 48.59761323 -506.01745194 42.72596007 -506.07138824 36.85413742 C-506.09666235 34.35739917 -506.12703248 31.86070718 -506.16255951 29.36409378 C-506.21091861 25.87371837 -506.24014184 22.38367949 -506.26464844 18.89306641 C-506.28321396 17.85912247 -506.30177948 16.82517853 -506.32090759 15.75990295 C-506.34736361 6.89470164 -506.34736361 6.89470164 -503 3 C-499.22217157 0.48144771 -497.49384117 0.61783933 -493 1 C-490.22956341 1.84283903 -487.63360881 2.98972876 -485 4.1875 C-479.83558655 6.49467879 -474.66596665 8.47151595 -469.28125 10.21484375 C-460.18772335 13.17174805 -451.32631723 16.69600149 -442.43762207 20.21289062 C-437.36270845 22.22050241 -432.28259422 24.21488658 -427.203125 26.2109375 C-425.66322906 26.81660553 -425.66322906 26.81660553 -424.09222412 27.43450928 C-414.16286362 31.33678114 -404.21079708 35.17879734 -394.25 39 C-393.44225128 39.30987854 -392.63450256 39.61975708 -391.80227661 39.93902588 C-388.66782142 41.14125777 -385.53328874 42.34328647 -382.39845276 43.54452515 C-377.88074252 45.2762315 -373.36662259 47.01688684 -368.85546875 48.765625 C-358.38104129 52.82263807 -347.88289057 56.79064455 -337.32525635 60.6265564 C-322.53552886 66.00061803 -307.89673115 71.71469688 -293.27207947 77.52096558 C-284.1317283 81.14471767 -274.9563251 84.67812955 -265.78344727 88.21850586 C-263.96478149 88.92052124 -263.96478149 88.92052124 -262.109375 89.63671875 C-261.04686523 90.04623779 -259.98435547 90.45575684 -258.88964844 90.87768555 C-257.04507956 91.59410014 -255.22083031 92.36700344 -253.43066406 93.21020508 C-248.4285806 94.83553051 -243.95673476 92.30964486 -239.27734375 90.4453125 C-238.62809937 90.18807404 -237.97885498 89.93083557 -237.30993652 89.665802 C-235.91281897 89.11163632 -234.51646892 88.55553247 -233.12081909 87.99768066 C-230.90699328 87.11280635 -228.6912131 86.23299921 -226.47485352 85.35449219 C-223.44212624 84.15192983 -220.41016799 82.94746263 -217.37890625 81.74121094 C-202.9014665 75.98176974 -188.41859694 70.23882668 -173.8125 64.8125 C-150.00255385 55.96358495 -126.40801437 46.52652496 -102.77026367 37.22973633 C-54.12264697 18.10457027 -54.12264697 18.10457027 -37.02905273 11.6809082 C-32.62439215 10.02148666 -28.25108721 8.30004871 -23.890625 6.52734375 C-22.84729004 6.10702881 -21.80395508 5.68671387 -20.72900391 5.25366211 C-18.72193475 4.44303602 -16.71868348 3.62286325 -14.72021484 2.79125977 C-5.38874112 -0.96275276 -5.38874112 -0.96275276 0 0 Z " fill="#7E4D96" transform="translate(751,411)"/>
  <path d="M0 0 C0.71715179 0.28919312 1.43430359 0.57838623 2.17318726 0.87634277 C4.5270259 1.82921506 6.87045021 2.80539934 9.21484375 3.78125 C10.8931575 4.46421888 12.57229509 5.14516631 14.25219727 5.82421875 C17.77512676 7.24914842 21.29509463 8.68106905 24.81347656 10.1171875 C32.52237723 13.2533922 40.2770292 16.27178561 48.03372192 19.28738403 C50.6076743 20.28818284 53.18075459 21.29119613 55.75366211 22.29467773 C75.4858758 29.98658081 95.25786218 37.57547945 115.03466797 45.15185547 C134.41758641 52.57748756 153.76856701 60.07445702 173.06762695 67.71557617 C194.88408846 76.35173878 216.75924949 84.83742899 238.6628418 93.25 C263.48027773 102.78209511 288.29380735 112.3249999 313.01806641 122.09667969 C314.34667098 122.62176683 315.6752845 123.14683133 317.00390625 123.671875 C317.6857901 123.94134949 318.36767395 124.21082397 319.07022095 124.48846436 C331.53391845 129.41017633 344.01471012 134.28861099 356.49172974 139.17642212 C359.72115588 140.44156088 362.95042617 141.70709687 366.1796875 142.97265625 C367.1388205 143.34819641 368.09795349 143.72373657 369.08615112 144.11065674 C370.89635294 144.82015465 372.70541122 145.53257907 374.51315308 146.24832153 C376.33100646 146.95979438 378.15587015 147.65352645 379.9861145 148.33248901 C380.88603119 148.67256989 381.78594788 149.01265076 382.71313477 149.36303711 C383.51904556 149.6606041 384.32495636 149.95817108 385.1552887 150.26475525 C387.15234375 151.28125 387.15234375 151.28125 389.15234375 154.28125 C389.453125 156.40234375 389.453125 156.40234375 389.46484375 158.71875 C389.48160156 159.48058594 389.49835937 160.24242187 389.515625 161.02734375 C389.05029934 163.91436427 388.11127301 165.11676231 386.15234375 167.28125 C383.82177734 168.40283203 383.82177734 168.40283203 381.05078125 169.2890625 C380.01671143 169.63042236 378.9826416 169.97178223 377.91723633 170.32348633 C376.79857178 170.68079834 375.67990723 171.03811035 374.52734375 171.40625 C365.5600981 174.38789481 356.717468 177.52944891 347.96484375 181.09375 C338.68333191 184.86473273 329.3739253 188.55032563 320.02734375 192.15625 C318.71336919 192.66379321 317.39940438 193.17136166 316.08544922 193.67895508 C310.80298622 195.71874904 305.51913017 197.7549235 300.23486328 199.79003906 C296.35252852 201.28539719 292.47098681 202.78280184 288.58984375 204.28125 C287.95305695 204.52690704 287.31627014 204.77256409 286.66018677 205.02566528 C277.53809188 208.5472061 268.45511043 212.15777611 259.38775635 215.81771851 C249.76426927 219.70147748 240.12910281 223.43870175 230.30664062 226.79052734 C221.37586001 229.85203983 212.62578127 233.34912035 203.84912109 236.82324219 C196.16747179 239.85288224 188.4709444 242.84462093 180.77734375 245.84375 C177.20432873 247.23672707 173.63140542 248.62993895 170.05859375 250.0234375 C169.15772537 250.3747876 168.25685699 250.7261377 167.32868958 251.08813477 C161.08981167 253.52246565 154.85476663 255.96643889 148.62109375 258.4140625 C131.68208029 265.05993891 114.71848808 271.61039142 97.64471436 277.90274048 C87.07304993 281.79986779 76.5596958 285.8194336 66.0847168 289.97119141 C55.80160062 294.04329072 45.47937777 298.00962426 35.15234375 301.96875 C23.4477775 306.45809428 11.75387282 310.96547363 0.1328125 315.66796875 C-0.50736816 315.92239746 -1.14754883 316.17682617 -1.80712891 316.43896484 C-3.31597521 317.06178367 -4.80842398 317.72466649 -6.29052734 318.40869141 C-7.56210693 318.97402588 -7.56210693 318.97402588 -8.859375 319.55078125 C-9.62080811 319.90374268 -10.38224121 320.2567041 -11.16674805 320.62036133 C-17.77080231 322.24837106 -23.98934145 319.75235729 -30.0703125 317.32421875 C-30.83987778 317.02550369 -31.60944305 316.72678864 -32.40232849 316.41902161 C-34.90833382 315.44405697 -37.40914767 314.45645337 -39.91015625 313.46875 C-41.67152605 312.78100667 -43.43324959 312.09416868 -45.1953125 311.40820312 C-48.74935748 310.02326497 -52.30152377 308.63367802 -55.85205078 307.23974609 C-60.20941763 305.52974108 -64.57144862 303.83222681 -68.9375 302.14453125 C-69.55945251 301.90411102 -70.18140503 301.6636908 -70.82220459 301.41598511 C-72.66397337 300.70428136 -74.50581445 299.99276475 -76.34765625 299.28125 C-78.20159477 298.56372303 -80.0555322 297.84619322 -81.90936279 297.12838745 C-83.83093168 296.38436969 -85.75262265 295.64066784 -87.67431641 294.89697266 C-90.66657144 293.73880528 -93.6583263 292.57935364 -96.64990234 291.41943359 C-120.51653306 282.04642426 -120.51653306 282.04642426 -144.66674805 273.44604492 C-149.763221 271.73646463 -154.68721429 269.70387891 -159.63989258 267.61572266 C-165.16821936 265.31586466 -170.75969681 263.18118172 -176.34765625 261.03125 C-177.67560004 260.51888051 -179.00347861 260.00634198 -180.33129883 259.49365234 C-183.24480351 258.36897654 -186.15865198 257.24519769 -189.07275391 256.12207031 C-196.95588526 253.0835173 -204.83663871 250.03880464 -212.7175293 246.9944458 C-215.541323 245.90386834 -218.36537334 244.81395749 -221.18945312 243.72412109 C-230.12022192 240.27638047 -239.04668198 236.81836144 -247.9609375 233.328125 C-249.56485315 232.70099153 -251.16877554 232.0738753 -252.77270508 231.44677734 C-255.69206995 230.30518788 -258.60964043 229.15918311 -261.52612305 228.01025391 C-268.84801379 225.13904839 -276.20667871 222.43124782 -283.640625 219.86328125 C-292.88620715 216.66637761 -302.00372408 213.19227927 -311.10308838 209.60250854 C-313.75604682 208.55592135 -316.41075036 207.5138694 -319.06591797 206.47290039 C-322.66076011 205.06345747 -326.25511041 203.65277256 -329.84912109 202.24121094 C-339.79465845 198.33813343 -349.76148926 194.48995572 -359.72906494 190.64356995 C-363.41022335 189.22303934 -367.09055906 187.80041179 -370.77001953 186.37548828 C-375.15836013 184.67606265 -379.54781328 182.97953746 -383.93792725 181.28469849 C-385.6427583 180.62603106 -387.34723816 179.96645376 -389.05133057 179.30587769 C-391.44467262 178.37836906 -393.83915707 177.45390267 -396.234375 176.53125 C-396.98624084 176.24089371 -397.73810669 175.95053741 -398.51275635 175.65138245 C-403.7692443 173.64094288 -409.06855876 171.86931007 -414.47583008 170.30078125 C-417.30236581 169.08579276 -418.86696923 167.616094 -420.84765625 165.28125 C-421.4140625 163.09765625 -421.4140625 163.09765625 -421.41015625 160.84375 C-421.43207031 160.10253906 -421.45398438 159.36132812 -421.4765625 158.59765625 C-420.5221591 155.08236921 -418.58994556 153.64712896 -415.84765625 151.28125 C-413.2359889 149.92370888 -410.53026646 148.9674206 -407.75 148.01171875 C-406.57664848 147.58875267 -406.57664848 147.58875267 -405.3795929 147.15724182 C-403.71337931 146.55822131 -402.04489989 145.96547173 -400.37438965 145.37854004 C-396.88859131 144.15372013 -393.41389685 142.89880866 -389.93844604 141.64498901 C-388.22636635 141.02752529 -386.51374353 140.41156535 -384.80056763 139.79714966 C-378.85000606 137.65993318 -372.95014704 135.42547952 -367.09765625 133.03125 C-360.0445012 130.15712529 -352.96056369 127.37950214 -345.84765625 124.65625 C-338.47866038 121.83465201 -331.11487971 119.00148159 -323.765625 116.12890625 C-306.9358243 109.55333399 -290.07186993 103.08101224 -273.16015625 96.71875 C-256.58443383 90.48203218 -240.07895492 84.09138261 -223.61708069 77.56103516 C-216.50066664 74.74140594 -209.36297811 71.97716068 -202.22265625 69.21875 C-201.58987762 68.97423096 -200.957099 68.72971191 -200.30514526 68.4777832 C-197.11951994 67.24694448 -193.93361722 66.01682599 -190.74755859 64.78710938 C-184.66515276 62.43911689 -178.58509529 60.08505428 -172.50494385 57.73123169 C-170.62821536 57.00477209 -168.75136666 56.27862306 -166.87451172 55.55249023 C-161.77542192 53.57917658 -156.67649297 51.60565458 -151.58300781 49.61791992 C-144.02465291 46.66934546 -136.45925783 43.74218901 -128.87109375 40.87109375 C-108.0602976 32.99618373 -87.30833374 24.9782026 -66.59765625 16.84375 C-65.42499207 16.38370575 -64.25232788 15.9236615 -63.04412842 15.44967651 C-59.61848504 14.10513898 -56.19393637 12.75784388 -52.76953125 11.41015625 C-51.67593292 10.98159836 -50.58233459 10.55304047 -49.45559692 10.11149597 C-44.14881716 8.0220903 -38.87448513 5.88248928 -33.63867188 3.62060547 C-32.65263977 3.19956039 -31.66660767 2.77851532 -30.6506958 2.3447113 C-28.82262493 1.55982475 -27.00059568 0.7606235 -25.18670654 -0.0565033 C-16.34231515 -3.83812385 -8.79924741 -3.757439 0 0 Z " fill="#7D67A6" transform="translate(515.84765625,165.71875)"/>
  <path d="M0 0 C2.94784868 2.04653833 4.73313456 3.67708076 5.46032906 7.28196716 C5.6459274 10.21366474 5.66382929 13.10742403 5.63110352 16.04492188 C5.64183647 17.7164608 5.64183647 17.7164608 5.65278625 19.42176819 C5.66969185 23.10451273 5.65025798 26.78604325 5.62890625 30.46875 C5.62973477 33.02795513 5.63219349 35.5871602 5.63621521 38.1463623 C5.63907452 43.50969872 5.62488807 48.87260563 5.59692383 54.23583984 C5.56487295 60.43048566 5.56488844 66.62450189 5.5821386 72.81919241 C5.59801995 78.78598288 5.59116201 84.75258066 5.57420158 90.71937561 C5.56901594 93.25512679 5.56950618 95.79089609 5.57574654 98.3266449 C5.58119277 101.86985353 5.56084033 105.41199146 5.53344727 108.95507812 C5.54323608 110.52933311 5.54323608 110.52933311 5.55322266 112.13539124 C5.49478701 116.57749478 5.44450879 119.25309494 3.13853455 123.12780762 C0.30030903 125.61254849 -1.22328928 126 -5 126 C-7.79767948 125.19705589 -10.31529887 124.15719876 -13 123 C-12.32195313 123.64324219 -11.64390625 124.28648437 -10.9453125 124.94921875 C13.86454692 149.03746176 29.69272263 180.82084684 30.29248047 215.79321289 C30.51165139 252.26913469 18.26316201 283.64790859 -7 310 C-7.76828125 310.83144531 -8.5365625 311.66289063 -9.328125 312.51953125 C-15.55610754 319.05891292 -22.38352456 324.21829066 -30 329 C-30.89283691 329.57065186 -30.89283691 329.57065186 -31.80371094 330.15283203 C-60.51665482 348.26372279 -96.55591622 353.63341682 -129.49414062 346.19921875 C-147.0999649 341.91831024 -161.6185757 335.91896044 -176.56640625 325.5390625 C-178.80181786 323.82183223 -178.80181786 323.82183223 -181 324 C-182.4126175 326.07701342 -183.68552395 328.1400655 -184.9375 330.3125 C-185.33227539 330.984021 -185.72705078 331.65554199 -186.13378906 332.34741211 C-187.43109653 334.56006453 -188.71662868 336.77923863 -190 339 C-190.8606668 340.48438096 -191.72134394 341.96875593 -192.58203125 343.453125 C-193.92963549 345.77951547 -195.27553655 348.10683448 -196.61743164 350.43652344 C-199.18666175 354.89241341 -201.78274352 359.33044906 -204.4140625 363.75 C-204.98995117 364.71800537 -205.56583984 365.68601074 -206.15917969 366.68334961 C-207.26881776 368.54532482 -208.38126059 370.40563266 -209.49707031 372.26391602 C-212.50480287 377.31341813 -215.2510834 382.41711382 -217.83837891 387.69360352 C-219.48348807 390.95996465 -221.33422375 394.07436359 -223.25 397.1875 C-225.66101572 401.11755692 -228.04496477 405.04433587 -230.265625 409.0859375 C-234.27303652 416.2891329 -237.94412326 422.84899286 -246 426 C-251.40013909 427.06074161 -255.23107516 425.50324707 -259.80859375 422.72265625 C-266.41292633 417.53101513 -270.12145682 409.18864358 -274.15820312 401.96313477 C-275.81500819 399.00761091 -277.491314 396.18235564 -279.5625 393.5 C-282.3149982 389.84219509 -284.14949598 385.76156425 -286.14624023 381.65820312 C-289.2847803 375.28327682 -292.95016762 369.28076893 -296.65332031 363.22265625 C-299.30923551 358.83914429 -301.89887205 354.41615731 -304.5 350 C-309.62651503 341.30893746 -314.79074964 332.64170215 -320 324 C-321.00417969 324.65226562 -322.00835937 325.30453125 -323.04296875 325.9765625 C-353.616124 345.61273467 -388.53364397 354.36947467 -424.625 346.875 C-448.58678873 341.44048816 -468.05080123 331.42368412 -486.9375 315.7890625 C-487.81728516 315.06130615 -487.81728516 315.06130615 -488.71484375 314.31884766 C-490 313 -490 313 -490 311 C-490.99 310.67 -491.98 310.34 -493 310 C-509.15308747 295.13230411 -520.82647523 272.04336657 -526 251 C-526.47373047 249.29070312 -526.47373047 249.29070312 -526.95703125 247.546875 C-534.56038141 215.46698663 -527.71026497 180.96481715 -511 153 C-505.79561018 144.7144534 -500.01978394 137.51224431 -493.28515625 130.4609375 C-490.90157436 128.02535779 -490.90157436 128.02535779 -489 125 C-490.051875 125.495 -490.051875 125.495 -491.125 126 C-494.35640675 127.12396756 -496.60142766 127.36155025 -500 127 C-503.1359157 125.22015595 -503.84102736 124.47691793 -505 121 C-505.10657388 119.46353154 -505.15906466 117.92300381 -505.17840576 116.38296509 C-505.19253006 115.43526749 -505.20665436 114.48756989 -505.22120667 113.51115417 C-505.23167526 112.47316177 -505.24214386 111.43516937 -505.25292969 110.36572266 C-505.26764816 109.27116257 -505.28236664 108.17660248 -505.29753113 107.0488739 C-505.34451331 103.42064705 -505.38383889 99.79239357 -505.421875 96.1640625 C-505.43573494 94.92637493 -505.44959488 93.68868736 -505.46387482 92.41349411 C-505.52958996 86.54077078 -505.59176789 80.66802888 -505.64805388 74.79520857 C-505.71303246 68.01966706 -505.79116368 61.24444652 -505.88073611 54.46918643 C-505.95747089 48.59761323 -506.01745194 42.72596007 -506.07138824 36.85413742 C-506.09666235 34.35739917 -506.12703248 31.86070718 -506.16255951 29.36409378 C-506.21091861 25.87371837 -506.24014184 22.38367949 -506.26464844 18.89306641 C-506.28321396 17.85912247 -506.30177948 16.82517853 -506.32090759 15.75990295 C-506.34736361 6.89470164 -506.34736361 6.89470164 -503 3 C-499.22217157 0.48144771 -497.49384117 0.61783933 -493 1 C-490.22956341 1.84283903 -487.63360881 2.98972876 -485 4.1875 C-479.83558655 6.49467879 -474.66596665 8.47151595 -469.28125 10.21484375 C-460.18772335 13.17174805 -451.32631723 16.69600149 -442.43762207 20.21289062 C-437.36270845 22.22050241 -432.28259422 24.21488658 -427.203125 26.2109375 C-425.66322906 26.81660553 -425.66322906 26.81660553 -424.09222412 27.43450928 C-414.16286362 31.33678114 -404.21079708 35.17879734 -394.25 39 C-393.44225128 39.30987854 -392.63450256 39.61975708 -391.80227661 39.93902588 C-388.66782142 41.14125777 -385.53328874 42.34328647 -382.39845276 43.54452515 C-377.88074252 45.2762315 -373.36662259 47.01688684 -368.85546875 48.765625 C-358.38104129 52.82263807 -347.88289057 56.79064455 -337.32525635 60.6265564 C-322.53552886 66.00061803 -307.89673115 71.71469688 -293.27207947 77.52096558 C-284.1317283 81.14471767 -274.9563251 84.67812955 -265.78344727 88.21850586 C-263.96478149 88.92052124 -263.96478149 88.92052124 -262.109375 89.63671875 C-261.04686523 90.04623779 -259.98435547 90.45575684 -258.88964844 90.87768555 C-257.04507956 91.59410014 -255.22083031 92.36700344 -253.43066406 93.21020508 C-248.4285806 94.83553051 -243.95673476 92.30964486 -239.27734375 90.4453125 C-238.62809937 90.18807404 -237.97885498 89.93083557 -237.30993652 89.665802 C-235.91281897 89.11163632 -234.51646892 88.55553247 -233.12081909 87.99768066 C-230.90699328 87.11280635 -228.6912131 86.23299921 -226.47485352 85.35449219 C-223.44212624 84.15192983 -220.41016799 82.94746263 -217.37890625 81.74121094 C-202.9014665 75.98176974 -188.41859694 70.23882668 -173.8125 64.8125 C-150.00255385 55.96358495 -126.40801437 46.52652496 -102.77026367 37.22973633 C-54.12264697 18.10457027 -54.12264697 18.10457027 -37.02905273 11.6809082 C-32.62439215 10.02148666 -28.25108721 8.30004871 -23.890625 6.52734375 C-22.84729004 6.10702881 -21.80395508 5.68671387 -20.72900391 5.25366211 C-18.72193475 4.44303602 -16.71868348 3.62286325 -14.72021484 2.79125977 C-5.38874112 -0.96275276 -5.38874112 -0.96275276 0 0 Z M-11.0625 10.625 C-16.28588598 12.91873892 -21.54214385 14.96119022 -26.9375 16.8125 C-42.30054766 22.09948026 -57.36394116 28.2736832 -72.4140625 34.38671875 C-79.5885955 37.29319015 -86.80508407 40.05753755 -94.0625 42.75 C-108.45197313 48.09723636 -122.72773021 53.73664324 -137.01391602 59.35253906 C-147.2600302 63.37779626 -157.51745309 67.36727438 -167.81523132 71.25880432 C-172.70516792 73.10994939 -177.56793847 75.0185323 -182.41920471 76.96867371 C-187.01207904 78.80405836 -191.62604657 80.5850494 -196.23828125 82.37109375 C-197.28090622 82.77530045 -198.32353119 83.17950714 -199.39775085 83.59596252 C-201.5901842 84.44581701 -203.78271596 85.29541764 -205.9753418 86.14477539 C-209.2930186 87.42995343 -212.61040366 88.71588205 -215.92773438 90.00195312 C-220.12134931 91.62758539 -224.31554374 93.25170777 -228.51025391 94.87451172 C-231.77465735 96.13743498 -235.03774508 97.4035474 -238.29833984 98.67626953 C-239.45156738 99.12470215 -240.60479492 99.57313477 -241.79296875 100.03515625 C-242.73035889 100.40133057 -243.66774902 100.76750488 -244.63354492 101.14477539 C-250.51129941 103.26896542 -253.50617311 102.33890138 -259.25 99.9375 C-260.87331325 99.28159925 -262.49701924 98.62666978 -264.12109375 97.97265625 C-264.93819824 97.64023926 -265.75530273 97.30782227 -266.59716797 96.96533203 C-270.14608879 95.53956157 -273.72644392 94.20395019 -277.3125 92.875 C-295.42967577 86.11220354 -295.42967577 86.11220354 -303.75 82.5625 C-309.30469457 80.22175024 -314.94595169 78.21477189 -320.63598633 76.23510742 C-328.78107196 73.39643316 -336.81439908 70.29096931 -344.8125 67.0625 C-349.8151803 65.0484339 -354.86455385 63.1629343 -359.91650391 61.27709961 C-365.0610197 59.35586379 -370.18975938 57.39662732 -375.3125 55.41796875 C-378.24770933 54.28928126 -381.18528419 53.16763757 -384.125 52.05078125 C-385.04128174 51.70257324 -385.95756348 51.35436523 -386.90161133 50.99560547 C-388.70586922 50.31033216 -390.51037811 49.62571918 -392.31518555 48.94189453 C-397.44833919 46.99155931 -402.55434349 44.98351178 -407.64916992 42.93530273 C-411.01879817 41.59466032 -414.41248517 40.32363439 -417.8125 39.0625 C-423.65925621 36.88151823 -429.49127855 34.66641554 -435.3125 32.41796875 C-438.24770933 31.28928126 -441.18528419 30.16763757 -444.125 29.05078125 C-445.04128174 28.70257324 -445.95756348 28.35436523 -446.90161133 27.99560547 C-448.70586922 27.31033216 -450.51037811 26.62571918 -452.31518555 25.94189453 C-457.4409653 23.99436101 -462.53969421 21.98936677 -467.62719727 19.9440918 C-471.10824905 18.55904938 -474.61345531 17.24289387 -478.125 15.9375 C-479.44010417 15.44661458 -480.75520833 14.95572917 -482.0703125 14.46484375 C-482.71129883 14.22749512 -483.35228516 13.99014648 -484.01269531 13.74560547 C-485.40167716 13.22448132 -486.78614786 12.69124477 -488.16699219 12.14892578 C-492.45537582 10.47497973 -492.45537582 10.47497973 -497 10 C-497 45.64 -497 81.28 -497 118 C-493.55227983 117.31045597 -490.63979892 116.61555694 -487.375 115.4765625 C-486.51036133 115.17903076 -485.64572266 114.88149902 -484.75488281 114.57495117 C-483.84577148 114.26146729 -482.93666016 113.9479834 -482 113.625 C-468.39195024 109.0343186 -455.25152586 106.45075413 -441 105 C-441 105.66 -441 106.32 -441 107 C-441.83789062 107.09667969 -442.67578125 107.19335938 -443.5390625 107.29296875 C-465.29559871 111.73758845 -486.62585489 132.18363314 -499 149.6875 C-500.35579735 151.77726283 -501.69029463 153.88104578 -503 156 C-503.63421875 156.98484375 -504.2684375 157.9696875 -504.921875 158.984375 C-508.860797 165.34724901 -511.58071207 171.74213622 -513.9453125 178.8359375 C-514.75027508 181.25082525 -515.62718044 183.53989648 -516.625 185.875 C-525.42164054 209.85212877 -522.92726776 241.24555653 -512.6875 264.375 C-511.79736457 266.25271171 -510.90139751 268.1276686 -510 270 C-509.56945312 270.94746094 -509.13890625 271.89492188 -508.6953125 272.87109375 C-500.59725884 290.09661466 -488.10882912 304.52604861 -473 316 C-471.85144531 316.88945313 -471.85144531 316.88945313 -470.6796875 317.796875 C-460.14829127 325.57939831 -447.6284977 332.4368412 -435 336 C-433.79085937 336.36996094 -432.58171875 336.73992187 -431.3359375 337.12109375 C-408.87250826 343.2827914 -382.02038141 342.22552429 -360 335 C-358.47826172 334.56880859 -358.47826172 334.56880859 -356.92578125 334.12890625 C-343.95158961 330.07568345 -331.71390944 322.06755508 -321.1875 313.6171875 C-319 312 -319 312 -317 312 C-316.56171875 312.77859375 -316.1234375 313.5571875 -315.671875 314.359375 C-311.65309335 321.44942067 -307.53193423 328.46496955 -303.3125 335.4375 C-298.1736772 343.93070609 -293.25839247 352.53663309 -288.45239258 361.22241211 C-286.2704513 365.13553744 -284.12106711 368.95304037 -281.43359375 372.54296875 C-278.92485663 375.92506997 -277.1714571 379.54171574 -275.33935547 383.32324219 C-272.97263531 388.05323121 -270.25886205 392.57745137 -267.5625 397.125 C-266.74168945 398.53072266 -266.74168945 398.53072266 -265.90429688 399.96484375 C-260.79178323 409.75064691 -260.79178323 409.75064691 -253 417 C-250.12693772 417.50095023 -250.12693772 417.50095023 -247 417 C-241.76989831 412.78217606 -238.89701339 407.08795173 -235.625 401.3125 C-235.0170459 400.25450195 -234.4090918 399.19650391 -233.78271484 398.10644531 C-232.49651886 395.86720674 -231.21354585 393.62611422 -229.93359375 391.38330078 C-228.07033817 388.12307404 -226.19431576 384.87063648 -224.3125 381.62109375 C-219.1656323 372.73160863 -214.03855422 363.83103002 -208.953125 354.90625 C-208.61590424 354.31458038 -208.27868347 353.72291077 -207.9312439 353.11331177 C-205.90080173 349.55064326 -205.90080173 349.55064326 -203.87164307 345.98724365 C-198.62970385 336.78133079 -193.28437056 327.64187396 -187.80810547 318.57324219 C-187.30424316 317.73180664 -186.80038086 316.89037109 -186.28125 316.0234375 C-185.83845703 315.29044434 -185.39566406 314.55745117 -184.93945312 313.80224609 C-183.84592082 312.0431485 -183.84592082 312.0431485 -184 310 C-180.23684955 312.15817703 -176.85912817 314.58718189 -173.4375 317.25 C-163.13366171 325.07148479 -152.25463157 330.87842385 -140 335 C-139.2889209 335.24556641 -138.5778418 335.49113281 -137.84521484 335.74414062 C-114.19274448 343.56126403 -85.55154257 342.56937123 -62 335 C-60.7934375 334.62746094 -59.586875 334.25492188 -58.34375 333.87109375 C-29.05308775 323.66912765 -4.12257408 300.6272743 9.30517578 272.88671875 C12.20616354 266.69953745 14.89510544 260.50944261 17 254 C17.39316406 252.80761719 17.78632812 251.61523438 18.19140625 250.38671875 C21.21939913 239.96810887 21.39849306 229.45558963 21.4375 218.6875 C21.4436734 217.9605191 21.4498468 217.23353821 21.45620728 216.48452759 C21.50812283 206.96788337 20.5833274 198.21212133 18 189 C17.81203857 188.26289795 17.62407715 187.5257959 17.43041992 186.76635742 C10.41862491 159.62513823 -8.53677288 133.71973504 -32.3125 118.8125 C-34.52912434 117.51991424 -36.75909933 116.25002623 -39 115 C-39.9595459 114.45569336 -39.9595459 114.45569336 -40.93847656 113.90039062 C-42.93077433 112.77384561 -44.9315986 111.66461914 -46.9375 110.5625 C-47.55214111 110.22001221 -48.16678223 109.87752441 -48.80004883 109.5246582 C-52.52547861 107.53007194 -55.80016923 106.45524883 -60 106 C-60 105.01 -60 104.02 -60 103 C-48.80643706 103.29770114 -38.76663678 104.9857984 -28 108 C-27.00097656 108.2371875 -26.00195312 108.474375 -24.97265625 108.71875 C-18.62823162 110.24796569 -13.18730206 112.71783986 -7.43359375 115.79296875 C-5.15412769 117.14811178 -5.15412769 117.14811178 -3 117 C-3 81.03 -3 45.06 -3 8 C-6.03758523 8 -8.29834992 9.38732086 -11.0625 10.625 Z " fill="#FCFBFD" transform="translate(751,411)"/>
  <path d="M0 0 C0.95519531 -0.01160156 1.91039062 -0.02320313 2.89453125 -0.03515625 C18.17317153 0.026868 32.60854168 5.96490537 44.5 15.375 C45.33402344 16.02082031 46.16804688 16.66664063 47.02734375 17.33203125 C59.11711476 27.37268853 66.14847397 41.12866804 69.5 56.375 C71.16245206 76.51016075 67.50874794 95.39026064 54.328125 111.29296875 C53.72484375 111.98003906 53.1215625 112.66710937 52.5 113.375 C51.91734375 114.05175781 51.3346875 114.72851562 50.734375 115.42578125 C40.97962554 125.97976439 25.55065595 134.68042088 10.97973633 135.52026367 C8.090541 135.54503962 5.20180935 135.56065615 2.3125 135.5625 C1.32185547 135.57474609 0.33121094 135.58699219 -0.68945312 135.59960938 C-18.95914945 135.63554976 -34.91740247 128.82551942 -48.1875 116.25 C-62.62472036 101.15373392 -68.00563581 83.65070675 -67.70703125 63.203125 C-67.11749033 44.64162808 -57.91689757 29.12645609 -44.625 16.625 C-31.85595889 5.5231916 -16.88146008 -0.20503798 0 0 Z " fill="#FCFCFD" transform="translate(351.5,562.625)"/>
  <path d="M0 0 C10.36124176 7.5851047 19.1589684 18.04870324 24 30 C24.556875 31.23943359 24.556875 31.23943359 25.125 32.50390625 C30.95560148 47.7080094 30.14184947 66.6231699 23.69921875 81.46875 C19.30143499 90.60805235 14.11933031 97.7458803 7 105 C6.38511719 105.639375 5.77023437 106.27875 5.13671875 106.9375 C-0.67857153 112.51619389 -7.69423351 115.80570383 -15 119 C-15.98484375 119.43828125 -16.9696875 119.8765625 -17.984375 120.328125 C-34.09790692 126.38135657 -54.4597396 124.39263106 -70.0703125 117.6796875 C-87.77996521 108.65220437 -99.3722589 94.3253711 -106.12890625 75.92578125 C-106.84126845 73.6235092 -107.47417653 71.35099587 -108 69 C-108.17789063 68.24074219 -108.35578125 67.48148438 -108.5390625 66.69921875 C-111.22645533 50.96202854 -107.96523378 33.48623313 -99.6875 19.8125 C-98.50114628 18.17641741 -97.27172318 16.57064367 -96 15 C-95.34386719 14.15566406 -94.68773437 13.31132813 -94.01171875 12.44140625 C-86.67602464 3.63052685 -76.6798602 -3.72407832 -66 -8 C-65.15308594 -8.36996094 -64.30617188 -8.73992188 -63.43359375 -9.12109375 C-42.31918912 -17.07684725 -18.36906107 -12.05694744 0 0 Z " fill="#FCFCFD" transform="translate(689,575)"/>
  <path d="M0 0 C0.71715179 0.28919312 1.43430359 0.57838623 2.17318726 0.87634277 C4.5270259 1.82921506 6.87045021 2.80539934 9.21484375 3.78125 C10.8931575 4.46421888 12.57229509 5.14516631 14.25219727 5.82421875 C17.77512676 7.24914842 21.29509463 8.68106905 24.81347656 10.1171875 C32.52237723 13.2533922 40.2770292 16.27178561 48.03372192 19.28738403 C50.6076743 20.28818284 53.18075459 21.29119613 55.75366211 22.29467773 C75.4858758 29.98658081 95.25786218 37.57547945 115.03466797 45.15185547 C134.41758641 52.57748756 153.76856701 60.07445702 173.06762695 67.71557617 C194.88408846 76.35173878 216.75924949 84.83742899 238.6628418 93.25 C263.48027773 102.78209511 288.29380735 112.3249999 313.01806641 122.09667969 C314.34667098 122.62176683 315.6752845 123.14683133 317.00390625 123.671875 C317.6857901 123.94134949 318.36767395 124.21082397 319.07022095 124.48846436 C331.53391845 129.41017633 344.01471012 134.28861099 356.49172974 139.17642212 C359.72115588 140.44156088 362.95042617 141.70709687 366.1796875 142.97265625 C367.1388205 143.34819641 368.09795349 143.72373657 369.08615112 144.11065674 C370.89635294 144.82015465 372.70541122 145.53257907 374.51315308 146.24832153 C376.33100646 146.95979438 378.15587015 147.65352645 379.9861145 148.33248901 C380.88603119 148.67256989 381.78594788 149.01265076 382.71313477 149.36303711 C383.51904556 149.6606041 384.32495636 149.95817108 385.1552887 150.26475525 C387.15234375 151.28125 387.15234375 151.28125 389.15234375 154.28125 C389.453125 156.40234375 389.453125 156.40234375 389.46484375 158.71875 C389.48160156 159.48058594 389.49835937 160.24242187 389.515625 161.02734375 C389.05029934 163.91436427 388.11127301 165.11676231 386.15234375 167.28125 C383.82177734 168.40283203 383.82177734 168.40283203 381.05078125 169.2890625 C380.01671143 169.63042236 378.9826416 169.97178223 377.91723633 170.32348633 C376.79857178 170.68079834 375.67990723 171.03811035 374.52734375 171.40625 C365.5600981 174.38789481 356.717468 177.52944891 347.96484375 181.09375 C338.68333191 184.86473273 329.3739253 188.55032563 320.02734375 192.15625 C318.71336919 192.66379321 317.39940438 193.17136166 316.08544922 193.67895508 C310.80298622 195.71874904 305.51913017 197.7549235 300.23486328 199.79003906 C296.35252852 201.28539719 292.47098681 202.78280184 288.58984375 204.28125 C287.95305695 204.52690704 287.31627014 204.77256409 286.66018677 205.02566528 C277.53809188 208.5472061 268.45511043 212.15777611 259.38775635 215.81771851 C249.76426927 219.70147748 240.12910281 223.43870175 230.30664062 226.79052734 C221.37586001 229.85203983 212.62578127 233.34912035 203.84912109 236.82324219 C196.16747179 239.85288224 188.4709444 242.84462093 180.77734375 245.84375 C177.20432873 247.23672707 173.63140542 248.62993895 170.05859375 250.0234375 C169.15772537 250.3747876 168.25685699 250.7261377 167.32868958 251.08813477 C161.08981167 253.52246565 154.85476663 255.96643889 148.62109375 258.4140625 C131.68208029 265.05993891 114.71848808 271.61039142 97.64471436 277.90274048 C87.07304993 281.79986779 76.5596958 285.8194336 66.0847168 289.97119141 C55.80160062 294.04329072 45.47937777 298.00962426 35.15234375 301.96875 C23.4477775 306.45809428 11.75387282 310.96547363 0.1328125 315.66796875 C-0.50736816 315.92239746 -1.14754883 316.17682617 -1.80712891 316.43896484 C-3.31597521 317.06178367 -4.80842398 317.72466649 -6.29052734 318.40869141 C-7.56210693 318.97402588 -7.56210693 318.97402588 -8.859375 319.55078125 C-9.62080811 319.90374268 -10.38224121 320.2567041 -11.16674805 320.62036133 C-17.77080231 322.24837106 -23.98934145 319.75235729 -30.0703125 317.32421875 C-30.83987778 317.02550369 -31.60944305 316.72678864 -32.40232849 316.41902161 C-34.90833382 315.44405697 -37.40914767 314.45645337 -39.91015625 313.46875 C-41.67152605 312.78100667 -43.43324959 312.09416868 -45.1953125 311.40820312 C-48.74935748 310.02326497 -52.30152377 308.63367802 -55.85205078 307.23974609 C-60.20941763 305.52974108 -64.57144862 303.83222681 -68.9375 302.14453125 C-69.55945251 301.90411102 -70.18140503 301.6636908 -70.82220459 301.41598511 C-72.66397337 300.70428136 -74.50581445 299.99276475 -76.34765625 299.28125 C-78.20159477 298.56372303 -80.0555322 297.84619322 -81.90936279 297.12838745 C-83.83093168 296.38436969 -85.75262265 295.64066784 -87.67431641 294.89697266 C-90.66657144 293.73880528 -93.6583263 292.57935364 -96.64990234 291.41943359 C-120.51653306 282.04642426 -120.51653306 282.04642426 -144.66674805 273.44604492 C-149.763221 271.73646463 -154.68721429 269.70387891 -159.63989258 267.61572266 C-165.16821936 265.31586466 -170.75969681 263.18118172 -176.34765625 261.03125 C-177.67560004 260.51888051 -179.00347861 260.00634198 -180.33129883 259.49365234 C-183.24480351 258.36897654 -186.15865198 257.24519769 -189.07275391 256.12207031 C-196.95588526 253.0835173 -204.83663871 250.03880464 -212.7175293 246.9944458 C-215.541323 245.90386834 -218.36537334 244.81395749 -221.18945312 243.72412109 C-230.12022192 240.27638047 -239.04668198 236.81836144 -247.9609375 233.328125 C-249.56485315 232.70099153 -251.16877554 232.0738753 -252.77270508 231.44677734 C-255.69206995 230.30518788 -258.60964043 229.15918311 -261.52612305 228.01025391 C-268.84801379 225.13904839 -276.20667871 222.43124782 -283.640625 219.86328125 C-292.88620715 216.66637761 -302.00372408 213.19227927 -311.10308838 209.60250854 C-313.75604682 208.55592135 -316.41075036 207.5138694 -319.06591797 206.47290039 C-322.66076011 205.06345747 -326.25511041 203.65277256 -329.84912109 202.24121094 C-339.79465845 198.33813343 -349.76148926 194.48995572 -359.72906494 190.64356995 C-363.41022335 189.22303934 -367.09055906 187.80041179 -370.77001953 186.37548828 C-375.15836013 184.67606265 -379.54781328 182.97953746 -383.93792725 181.28469849 C-385.6427583 180.62603106 -387.34723816 179.96645376 -389.05133057 179.30587769 C-391.44467262 178.37836906 -393.83915707 177.45390267 -396.234375 176.53125 C-396.98624084 176.24089371 -397.73810669 175.95053741 -398.51275635 175.65138245 C-403.7692443 173.64094288 -409.06855876 171.86931007 -414.47583008 170.30078125 C-417.30236581 169.08579276 -418.86696923 167.616094 -420.84765625 165.28125 C-421.4140625 163.09765625 -421.4140625 163.09765625 -421.41015625 160.84375 C-421.43207031 160.10253906 -421.45398438 159.36132812 -421.4765625 158.59765625 C-420.5221591 155.08236921 -418.58994556 153.64712896 -415.84765625 151.28125 C-413.2359889 149.92370888 -410.53026646 148.9674206 -407.75 148.01171875 C-406.57664848 147.58875267 -406.57664848 147.58875267 -405.3795929 147.15724182 C-403.71337931 146.55822131 -402.04489989 145.96547173 -400.37438965 145.37854004 C-396.88859131 144.15372013 -393.41389685 142.89880866 -389.93844604 141.64498901 C-388.22636635 141.02752529 -386.51374353 140.41156535 -384.80056763 139.79714966 C-378.85000606 137.65993318 -372.95014704 135.42547952 -367.09765625 133.03125 C-360.0445012 130.15712529 -352.96056369 127.37950214 -345.84765625 124.65625 C-338.47866038 121.83465201 -331.11487971 119.00148159 -323.765625 116.12890625 C-306.9358243 109.55333399 -290.07186993 103.08101224 -273.16015625 96.71875 C-256.58443383 90.48203218 -240.07895492 84.09138261 -223.61708069 77.56103516 C-216.50066664 74.74140594 -209.36297811 71.97716068 -202.22265625 69.21875 C-201.58987762 68.97423096 -200.957099 68.72971191 -200.30514526 68.4777832 C-197.11951994 67.24694448 -193.93361722 66.01682599 -190.74755859 64.78710938 C-184.66515276 62.43911689 -178.58509529 60.08505428 -172.50494385 57.73123169 C-170.62821536 57.00477209 -168.75136666 56.27862306 -166.87451172 55.55249023 C-161.77542192 53.57917658 -156.67649297 51.60565458 -151.58300781 49.61791992 C-144.02465291 46.66934546 -136.45925783 43.74218901 -128.87109375 40.87109375 C-108.0602976 32.99618373 -87.30833374 24.9782026 -66.59765625 16.84375 C-65.42499207 16.38370575 -64.25232788 15.9236615 -63.04412842 15.44967651 C-59.61848504 14.10513898 -56.19393637 12.75784388 -52.76953125 11.41015625 C-51.67593292 10.98159836 -50.58233459 10.55304047 -49.45559692 10.11149597 C-44.14881716 8.0220903 -38.87448513 5.88248928 -33.63867188 3.62060547 C-32.65263977 3.19956039 -31.66660767 2.77851532 -30.6506958 2.3447113 C-28.82262493 1.55982475 -27.00059568 0.7606235 -25.18670654 -0.0565033 C-16.34231515 -3.83812385 -8.79924741 -3.757439 0 0 Z M-21.015625 7.5625 C-21.62983307 7.80711975 -22.24404114 8.0517395 -22.87686157 8.30377197 C-24.22017624 8.83963144 -25.5622506 9.37860806 -26.90322876 9.92028809 C-29.84681889 11.10903348 -32.79655785 12.28217549 -35.74583435 13.45672607 C-37.32733934 14.08682842 -38.90851918 14.71774741 -40.48939514 15.34942627 C-49.52699106 18.95954967 -58.59254913 22.49733692 -67.66015625 26.03125 C-68.5111087 26.36317352 -69.36206116 26.69509705 -70.23880005 27.03707886 C-96.68924818 37.3542513 -123.17930116 47.56922553 -149.68173218 57.75201416 C-150.45836212 58.05041199 -151.23499207 58.34880981 -152.03515625 58.65625 C-152.80509918 58.9520697 -153.57504211 59.2478894 -154.36831665 59.55267334 C-168.97541588 65.16602973 -183.56947534 70.81286885 -198.16015625 76.46875 C-199.22430756 76.88106873 -200.28845886 77.29338745 -201.38485718 77.71820068 C-204.43129293 78.89874959 -207.4774196 80.0800922 -210.5234375 81.26171875 C-211.86790451 81.78267876 -211.86790451 81.78267876 -213.23953247 82.31416321 C-217.52120771 83.97630922 -221.79482473 85.65580236 -226.05737305 87.36645508 C-229.96163387 88.9326466 -233.88017723 90.4530453 -237.81640625 91.9375 C-239.04746094 92.40285156 -240.27851563 92.86820312 -241.546875 93.34765625 C-243.4486455 94.06516688 -245.35054355 94.78233875 -247.25244141 95.49951172 C-255.95593353 98.77609101 -255.95593353 98.77609101 -264.60546875 102.19140625 C-269.21019196 104.04936952 -273.8497186 105.80819072 -278.49609375 107.55859375 C-279.67325958 108.00212692 -279.67325958 108.00212692 -280.87420654 108.45462036 C-284.14341993 109.68541168 -287.41310765 110.91492834 -290.68359375 112.14233398 C-300.14498762 115.69507983 -309.54256575 119.33281724 -318.84765625 123.28125 C-328.59139366 127.31337379 -338.36759365 131.18400591 -348.34765625 134.59375 C-356.83131508 137.49607694 -365.19214713 140.6874889 -373.53515625 143.96875 C-374.71722656 144.4325708 -375.89929688 144.8963916 -377.1171875 145.37426758 C-382.77791343 147.61268818 -388.37304162 149.93591833 -393.91918945 152.44360352 C-396.5933964 153.60516878 -399.32070155 154.5226735 -402.09765625 155.40625 C-405.74469719 156.57368903 -409.30686132 157.82099516 -412.84765625 159.28125 C-412.84765625 159.94125 -412.84765625 160.60125 -412.84765625 161.28125 C-411.97625 161.58417969 -411.10484375 161.88710938 -410.20703125 162.19921875 C-404.41565407 164.23622912 -398.68089729 166.30026844 -393.03515625 168.71875 C-388.14015726 170.80535815 -383.18556463 172.60445818 -378.16015625 174.34375 C-373.01153529 176.12758615 -367.99788605 177.99879611 -363.05078125 180.29296875 C-355.2622994 183.78673809 -347.15364476 186.54005806 -339.09765625 189.34375 C-334.03965929 191.1056051 -329.12106366 192.96184134 -324.26171875 195.22265625 C-315.84850933 198.91194388 -307.0726808 201.85936636 -298.41015625 204.90625 C-293.85991998 206.5155426 -289.48697363 208.29739261 -285.109375 210.3203125 C-282.45952404 211.44615591 -279.77441406 212.33283221 -277.03515625 213.21875 C-271.97697603 214.86027264 -267.12137148 216.7856806 -262.23046875 218.8671875 C-252.12639748 223.0908293 -241.85462143 226.92154852 -231.58862305 230.73022461 C-224.65879747 233.31958365 -217.78900861 236.0600556 -210.91015625 238.78125 C-202.43097509 242.13364102 -193.94331062 245.38723045 -185.3215332 248.35327148 C-180.37085158 250.06496668 -175.55548071 252.00926744 -170.73828125 254.0625 C-163.48626849 257.12010538 -156.13846915 259.89247202 -148.66015625 262.34375 C-141.91876111 264.55577028 -135.40770645 267.20829853 -128.8671875 269.94921875 C-121.46330339 273.04076743 -114.10439045 275.94530945 -106.45703125 278.39453125 C-103.34607205 279.45169852 -100.42405605 280.77379637 -97.4453125 282.15234375 C-94.02371572 283.63932341 -90.53360952 284.92674939 -87.03515625 286.21875 C-81.12233937 288.40239015 -75.28867684 290.71347611 -69.49609375 293.203125 C-65.95962801 294.64274822 -62.35299038 295.80428516 -58.71484375 296.95703125 C-54.58610452 298.27660869 -50.58773095 299.77495761 -46.59765625 301.46875 C-40.74662049 303.92558026 -34.87428793 306.32336612 -28.97265625 308.65625 C-28.06870117 309.02645264 -27.16474609 309.39665527 -26.23339844 309.77807617 C-21.35746494 311.68287925 -18.04443753 312.85396013 -12.84765625 311.28125 C-11.61402344 310.97767578 -11.61402344 310.97767578 -10.35546875 310.66796875 C-5.53655056 309.25389276 -1.14876195 307.58764381 3.296875 305.25390625 C7.62891615 302.98300468 12.01775189 301.28669421 16.71484375 299.96875 C22.23954894 298.37589114 27.37685275 296.06975146 32.6328125 293.7578125 C35.84037507 292.41213142 39.02802855 291.27543812 42.33984375 290.21875 C46.09137591 289.0190464 49.60107918 287.6698223 53.15234375 285.96875 C58.24740679 283.56805027 63.45514002 281.72454397 68.77734375 279.90625 C77.46216001 276.93534284 85.93230067 273.59907431 94.38525391 270.02734375 C100.26586591 267.54445479 106.14356779 265.25670286 112.21484375 263.28125 C116.47808996 261.8871847 120.49988853 260.28536288 124.56640625 258.40625 C128.60021119 256.65136205 132.73252314 255.16177762 136.85742188 253.63769531 C141.57330945 251.88952675 146.24432801 250.05271062 150.90234375 248.15625 C156.35628947 245.9399622 161.86378453 244.01694799 167.46484375 242.20703125 C170.6441273 241.111842 173.63907152 239.7549574 176.6875 238.34375 C179.73423263 237.03041993 182.83395629 235.94110377 185.96484375 234.84375 C191.34369765 232.95512361 196.59334406 230.88573258 201.83984375 228.66015625 C212.22418218 224.33743046 222.7717049 220.40213987 233.31445312 216.48510742 C237.87514832 214.78280407 242.39256435 212.98867252 246.90234375 211.15625 C252.34070173 208.94934933 257.82889347 207.01275904 263.41015625 205.19921875 C268.36395895 203.54089448 273.16285416 201.52534311 277.98388672 199.51904297 C286.06436489 196.15757977 294.14688937 192.86050228 302.36010742 189.83251953 C309.31177909 187.25473657 316.1962977 184.50987888 323.08984375 181.78125 C331.57053657 178.4280394 340.06043136 175.17620757 348.68286133 172.20703125 C353.56920461 170.51624648 358.32906492 168.61428844 363.08203125 166.58203125 C366.83516298 164.99196399 370.61586329 163.47729378 374.40234375 161.96875 C375.07152832 161.70191406 375.74071289 161.43507813 376.43017578 161.16015625 C378.00394148 160.53312509 379.57809877 159.9070769 381.15234375 159.28125 C377.51257623 156.11789184 373.47959786 154.69128371 369.02734375 153.03125 C367.4061801 152.41424612 365.7850884 151.79705319 364.1640625 151.1796875 C363.33438965 150.86612305 362.5047168 150.55255859 361.64990234 150.22949219 C357.70309301 148.73101639 353.77222512 147.19209267 349.83984375 145.65625 C341.50829203 142.41376781 333.16554756 139.2008257 324.81640625 136.00390625 C316.94607444 132.98602843 309.09883221 129.92607882 301.31640625 126.6875 C300.6109668 126.39472168 299.90552734 126.10194336 299.17871094 125.80029297 C297.81633218 125.23412967 296.45488156 124.66572332 295.09472656 124.09423828 C289.73405544 121.86647758 284.30851386 119.82194316 278.87025452 117.79325867 C270.46964054 114.65885128 262.0930541 111.46168123 253.71508789 108.26733398 C250.95802867 107.21615162 248.20071334 106.1656433 245.44335938 105.11523438 C240.34550596 103.17279196 235.24858338 101.2279222 230.15234375 99.28125 C229.4669754 99.01957031 228.78160706 98.75789063 228.07546997 98.48828125 C226.28558889 97.80443538 224.49628763 97.11907246 222.70703125 96.43359375 C221.75425293 96.0687085 220.80147461 95.70382324 219.81982422 95.32788086 C217.01668433 94.22802174 214.23938089 93.07622946 211.46484375 91.90625 C205.91611278 89.57260403 200.31838835 87.3868878 194.70263672 85.22143555 C189.05823782 83.03866337 183.44173498 80.79188983 177.83007812 78.52636719 C168.76995385 74.87009642 159.71925818 71.27421211 150.45288086 68.16967773 C147.59569429 67.20264714 144.91266797 66.16077467 142.21484375 64.8046875 C138.51695972 62.96517886 134.74596423 61.66544796 130.83984375 60.34375 C121.77589515 57.21745587 121.77589515 57.21745587 117.65234375 55.28125 C113.52291279 53.34832487 109.27037639 51.88948213 104.96484375 50.40625 C99.70167059 48.58931754 94.56140647 46.6604989 89.46484375 44.40625 C83.40831916 41.73857847 77.2562952 39.45212436 71.02734375 37.21875 C64.33793484 34.81994042 57.72101436 32.35610805 51.1875 29.5546875 C46.49521453 27.58598086 41.74412833 25.77188654 36.99731445 23.93945312 C32.176102 22.07585062 27.37838711 20.16473252 22.58984375 18.21875 C16.48437086 15.75951011 10.31654685 13.54918771 4.09472656 11.40356445 C-0.43007516 9.82892084 -4.79316564 8.0873447 -9.0859375 5.9453125 C-13.48785696 4.28605239 -16.92305198 5.91600404 -21.015625 7.5625 Z " fill="#FCFCFD" transform="translate(515.84765625,165.71875)"/>
  <path d="M0 0 C0.66 0.33 1.32 0.66 2 1 C-3.05765303 5.64075322 -8.16214258 10.18250335 -13.5 14.5 C-17.0947765 17.4081338 -20.58260628 20.38541332 -24 23.5 C-28.29991791 27.41891252 -32.75919547 31.09170869 -37.28125 34.75 C-39.92147729 36.93501569 -42.4672972 39.19171391 -45 41.5 C-48.31989486 44.52282421 -51.69764112 47.42512161 -55.1875 50.25 C-61.62711993 55.46518515 -67.85455403 60.91331752 -74.10351562 66.35351562 C-77.07855189 68.93637409 -80.0694406 71.50056914 -83.0625 74.0625 C-83.63589111 74.55339111 -84.20928223 75.04428223 -84.80004883 75.55004883 C-85.95530518 76.53885203 -87.11065976 77.52754049 -88.26611328 78.51611328 C-91.17894046 81.00895524 -94.08934061 83.50462766 -97 86 C-98.16665518 87.0000134 -99.33332184 88.00001341 -100.5 89 C-101.0775 89.495 -101.655 89.99 -102.25 90.5 C-104 92 -105.75 93.5 -107.5 95 C-108.0777417 95.4952417 -108.6554834 95.9904834 -109.25073242 96.50073242 C-110.41481977 97.49845195 -111.57904456 98.49601114 -112.7434082 99.4934082 C-115.70069887 102.02698743 -118.65538369 104.56350137 -121.60546875 107.10546875 C-126.93835322 111.69606553 -132.28185945 116.25761398 -137.75 120.6875 C-142.12651627 124.23862066 -146.3083146 127.95797398 -150.47265625 131.75390625 C-153.06962393 134.06187598 -155.73404013 136.25555863 -158.4375 138.4375 C-162.31917583 141.57797889 -166.0640641 144.81923026 -169.75 148.1875 C-170.65878906 149.0125 -171.56757813 149.8375 -172.50390625 150.6875 C-174.02108648 152.09308794 -175.5154194 153.52464162 -176.96484375 155 C-180.0382979 158.0107306 -181.25440735 158.96208851 -185.6875 159.1875 C-190.26152081 158.19353009 -194.51662054 156.26318143 -198.7890625 154.390625 C-202.01572502 152.99318965 -205.27074123 151.7353869 -208.5625 150.5 C-212.538368 148.98964068 -216.4067014 147.38239782 -220.25 145.5625 C-224.58235545 143.55104926 -228.98347145 141.91443194 -233.5 140.375 C-244.66918981 136.54757168 -255.52533249 131.94704693 -266.43994141 127.45654297 C-272.34237278 125.04165437 -278.26432615 122.67595916 -284.1875 120.3125 C-285.27482422 119.8784082 -286.36214844 119.44431641 -287.48242188 118.99707031 C-289.98798242 117.99729453 -292.49381609 116.9982119 -295 116 C-295 115.34 -295 114.68 -295 114 C-293.90945313 113.65388672 -293.90945313 113.65388672 -292.796875 113.30078125 C-286.46008816 111.24538757 -280.3101097 108.95109529 -274.1796875 106.34765625 C-264.60382019 102.28908841 -254.95663664 98.58657692 -245.1328125 95.18212891 C-239.98581399 93.38515713 -234.9722906 91.3635472 -229.9609375 89.21484375 C-226.655376 87.85860414 -223.31166154 86.6747352 -219.9375 85.5 C-215.63884613 83.99476335 -211.49581184 82.37635679 -207.375 80.4375 C-202.69066361 78.23593048 -197.95170777 76.60542179 -193.02734375 75.02734375 C-188.97307756 73.6515089 -185.0765882 71.96854418 -181.140625 70.2890625 C-176.6900117 68.46231823 -172.16202174 66.88348235 -167.6171875 65.30859375 C-160.93713825 62.89194526 -154.38401349 60.16329951 -147.8203125 57.44921875 C-136.47441812 52.76279775 -125.14108149 48.22499552 -113.51416016 44.28198242 C-108.51907819 42.57575179 -103.79088762 40.60194594 -99.03125 38.3125 C-94.76895042 36.46696822 -90.3935117 35.00087912 -86 33.5 C-79.63975484 31.32691136 -73.49814991 29.01253036 -67.42578125 26.11328125 C-63.98164255 24.53263788 -60.4421964 23.28862681 -56.87109375 22.02734375 C-53.78817756 20.92420503 -50.73895163 19.74979209 -47.6875 18.5625 C-43.12911879 16.79639733 -38.54964782 15.12034709 -33.9375 13.5 C-27.51989237 11.22621187 -21.26863697 8.65122377 -15 6 C-12.2969961 4.86171469 -9.58807036 3.73905958 -6.875 2.625 C-6.22281494 2.34986572 -5.57062988 2.07473145 -4.89868164 1.79125977 C-3.28883123 1.1345738 -1.64601609 0.55989806 0 0 Z " fill="#FDFDFD" transform="translate(467,211)"/>
  <path d="M0 0 C0.91201172 0.32726074 1.82402344 0.65452148 2.76367188 0.99169922 C3.63443359 1.32186035 4.50519531 1.65202148 5.40234375 1.9921875 C6.17956787 2.28206543 6.95679199 2.57194336 7.75756836 2.87060547 C10.86966675 4.56427791 12.78127806 6.40331346 15.0625 9.125 C15.69729233 12.37284565 15.69729233 12.37284565 15.71087646 16.126297 C15.72008755 16.8191285 15.72929863 17.51196 15.73878884 18.22578639 C15.76336521 20.54140294 15.75231203 22.85544278 15.74121094 25.17114258 C15.75126328 26.8337691 15.76341122 28.49638408 15.77749634 30.15898132 C15.80883376 34.67162572 15.80822495 39.18373693 15.79999065 43.69646287 C15.79583017 47.46624353 15.80680441 51.23591952 15.81763482 55.00568217 C15.84278013 63.90206642 15.84164874 72.79818507 15.82421875 81.69458008 C15.80670724 90.86468334 15.83306374 100.03391639 15.88118529 109.20389062 C15.92099138 117.08266731 15.93359042 124.96116958 15.92447114 132.84004134 C15.9192925 137.54314428 15.9243065 142.24566377 15.95543671 146.94867897 C15.98353134 151.3740231 15.97754029 155.79805384 15.94572067 160.22336006 C15.93968009 161.84384967 15.94547773 163.46443506 15.96422958 165.08482742 C16.11145109 178.83500723 16.11145109 178.83500723 11.65826416 183.99784851 C10.49002371 185.07413454 9.29420028 186.12195872 8.0625 187.125 C7.2684375 187.9396875 6.474375 188.754375 5.65625 189.59375 C4.61984375 190.59921875 4.61984375 190.59921875 3.5625 191.625 C0.77628859 194.3735599 -1.89058392 197.15359791 -4.4375 200.125 C-15.61722547 213.10286314 -15.61722547 213.10286314 -20.9375 215.125 C-24.12101958 214.93009064 -26.18670177 214.69457107 -28.75 212.75 C-31.59310204 208.85943932 -31.08292824 204.48886532 -31.07794189 199.90139771 C-31.08091302 199.05298337 -31.08388414 198.20456903 -31.0869453 197.33044517 C-31.09564273 194.47696006 -31.09714142 191.62351686 -31.09863281 188.77001953 C-31.1032602 186.72845367 -31.10828475 184.68688868 -31.11367798 182.64532471 C-31.12681051 177.09162507 -31.13324845 171.53793753 -31.13768864 165.9842248 C-31.14061762 162.51654935 -31.14472207 159.04887723 -31.14919281 155.58120346 C-31.16286918 144.73749784 -31.1725355 133.89379979 -31.1763947 123.05008614 C-31.18087776 110.52144634 -31.19843664 97.99291551 -31.2273953 85.46430886 C-31.24898927 75.78696566 -31.25909774 66.10965318 -31.26043582 56.43228614 C-31.26148537 50.64905034 -31.26742512 44.86591695 -31.28525543 39.08270645 C-31.30169689 33.64413584 -31.30391072 28.20574507 -31.29511642 22.76715851 C-31.29434398 20.76968022 -31.29871598 18.77219242 -31.30857468 16.77473831 C-31.32123351 14.05046614 -31.3154505 11.32683681 -31.30499268 8.60256958 C-31.31304908 7.8098629 -31.32110548 7.01715622 -31.32940602 6.20042813 C-31.28865715 1.67001494 -30.7743636 -1.28744512 -27.9375 -4.875 C-19.7933604 -9.56323826 -8.06258603 -2.96173798 0 0 Z " fill="#8073AD" transform="translate(159.9375,374.875)"/>
  <path d="M0 0 C10.42879199 -0.97012018 22.30014797 3.51249745 30.4609375 9.9375 C41.97279671 19.89370256 50.06809448 31.20422035 51.203125 46.7890625 C51.44263779 61.27958657 47.0938342 75.49292087 36.96875 86.1953125 C23.92018386 98.15649813 10.28090429 101.64314597 -6.94140625 101.33203125 C-19.70702592 100.75597822 -30.4508345 93.86160275 -39.12890625 84.76953125 C-43.3203211 79.65473775 -46.33352115 74.03203454 -49 68 C-49.35449219 67.20078125 -49.70898438 66.4015625 -50.07421875 65.578125 C-53.42646967 56.24274269 -52.9363016 45.35946136 -50 36 C-47.7956647 37.06134663 -45.74322885 38.16655426 -43.6875 39.5 C-36.34060132 43.60059461 -28.25344538 44.19363997 -20.12890625 42.34765625 C-11.63755376 39.60357146 -5.54870975 35.17538893 -1 27.4375 C2.8664062 18.93919107 1.43756091 8.98475569 0 0 Z " fill="#7A8EC3" transform="translate(353,580)"/>
  <path d="M0 0 C14.46945189 0.25671608 25.08939313 4.65443648 35.625 14.4375 C36.800625 15.7059375 36.800625 15.7059375 38 17 C38.48210937 17.48855469 38.96421875 17.97710938 39.4609375 18.48046875 C48.81384183 28.47430815 51.77907333 41.50378047 51.375 54.83203125 C50.56540104 67.33744381 43.84480907 79.62362647 34.9375 88.25 C24.63534891 96.82336546 12.44584811 101.41236713 -0.875 101.3125 C-1.66656494 101.30686035 -2.45812988 101.3012207 -3.27368164 101.29541016 C-9.27918713 101.17089901 -14.47358273 100.47931734 -20 98 C-20.8765625 97.62101563 -21.753125 97.24203125 -22.65625 96.8515625 C-34.48137221 91.10508457 -43.80910851 81.07676795 -49 69 C-50.97796628 62.5737587 -51.28262878 56.37154867 -51.1875 49.6875 C-51.18685547 48.80771484 -51.18621094 47.92792969 -51.18554688 47.02148438 C-51.15916457 43.16087391 -51.06115824 39.73284242 -50 36 C-47.78537326 37.06630176 -45.70583833 38.18578632 -43.625 39.5 C-36.07957822 43.81166959 -27.61048741 44.31409733 -19.21484375 42.34765625 C-11.66989367 39.63054131 -5.33412624 35.10234158 -1.625 27.875 C-1.0566372 26.59485576 -0.51578103 25.30221944 0 24 C0.35835937 23.21625 0.71671875 22.4325 1.0859375 21.625 C3.49129522 14.71730603 2.4587302 6.76150805 0 0 Z " fill="#7A8EC3" transform="translate(649,580)"/>
  <path d="M0 0 C0.91201172 0.32726074 1.82402344 0.65452148 2.76367188 0.99169922 C3.63443359 1.32186035 4.50519531 1.65202148 5.40234375 1.9921875 C6.17956787 2.28206543 6.95679199 2.57194336 7.75756836 2.87060547 C10.86966675 4.56427791 12.78127806 6.40331346 15.0625 9.125 C15.69729233 12.37284565 15.69729233 12.37284565 15.71087646 16.126297 C15.72008755 16.8191285 15.72929863 17.51196 15.73878884 18.22578639 C15.76336521 20.54140294 15.75231203 22.85544278 15.74121094 25.17114258 C15.75126328 26.8337691 15.76341122 28.49638408 15.77749634 30.15898132 C15.80883376 34.67162572 15.80822495 39.18373693 15.79999065 43.69646287 C15.79583017 47.46624353 15.80680441 51.23591952 15.81763482 55.00568217 C15.84278013 63.90206642 15.84164874 72.79818507 15.82421875 81.69458008 C15.80670724 90.86468334 15.83306374 100.03391639 15.88118529 109.20389062 C15.92099138 117.08266731 15.93359042 124.96116958 15.92447114 132.84004134 C15.9192925 137.54314428 15.9243065 142.24566377 15.95543671 146.94867897 C15.98353134 151.3740231 15.97754029 155.79805384 15.94572067 160.22336006 C15.93968009 161.84384967 15.94547773 163.46443506 15.96422958 165.08482742 C16.11145109 178.83500723 16.11145109 178.83500723 11.65826416 183.99784851 C10.49002371 185.07413454 9.29420028 186.12195872 8.0625 187.125 C7.2684375 187.9396875 6.474375 188.754375 5.65625 189.59375 C4.61984375 190.59921875 4.61984375 190.59921875 3.5625 191.625 C0.77628859 194.3735599 -1.89058392 197.15359791 -4.4375 200.125 C-15.61722547 213.10286314 -15.61722547 213.10286314 -20.9375 215.125 C-24.12101958 214.93009064 -26.18670177 214.69457107 -28.75 212.75 C-31.59310204 208.85943932 -31.08292824 204.48886532 -31.07794189 199.90139771 C-31.08091302 199.05298337 -31.08388414 198.20456903 -31.0869453 197.33044517 C-31.09564273 194.47696006 -31.09714142 191.62351686 -31.09863281 188.77001953 C-31.1032602 186.72845367 -31.10828475 184.68688868 -31.11367798 182.64532471 C-31.12681051 177.09162507 -31.13324845 171.53793753 -31.13768864 165.9842248 C-31.14061762 162.51654935 -31.14472207 159.04887723 -31.14919281 155.58120346 C-31.16286918 144.73749784 -31.1725355 133.89379979 -31.1763947 123.05008614 C-31.18087776 110.52144634 -31.19843664 97.99291551 -31.2273953 85.46430886 C-31.24898927 75.78696566 -31.25909774 66.10965318 -31.26043582 56.43228614 C-31.26148537 50.64905034 -31.26742512 44.86591695 -31.28525543 39.08270645 C-31.30169689 33.64413584 -31.30391072 28.20574507 -31.29511642 22.76715851 C-31.29434398 20.76968022 -31.29871598 18.77219242 -31.30857468 16.77473831 C-31.32123351 14.05046614 -31.3154505 11.32683681 -31.30499268 8.60256958 C-31.31304908 7.8098629 -31.32110548 7.01715622 -31.32940602 6.20042813 C-31.28865715 1.67001494 -30.7743636 -1.28744512 -27.9375 -4.875 C-19.7933604 -9.56323826 -8.06258603 -2.96173798 0 0 Z M-22.9375 2.125 C-22.9375 69.445 -22.9375 136.765 -22.9375 206.125 C-22.2775 206.125 -21.6175 206.125 -20.9375 206.125 C-19.40292633 204.60780017 -19.40292633 204.60780017 -17.8125 202.625 C-15.29492098 199.65822639 -12.71581024 196.84925751 -9.9375 194.125 C-6.7066382 190.94403568 -3.70022773 187.64132264 -0.7734375 184.1796875 C1.0625 182.125 1.0625 182.125 4.13467407 179.98007202 C8.31329248 175.75854616 7.81563374 170.57278351 7.809021 164.9708252 C7.78778949 163.44359566 7.76598068 161.91637405 7.74365234 160.38916016 C7.74195895 158.77253279 7.74291175 157.15590081 7.74630737 155.53927612 C7.74802693 151.15919985 7.71278411 146.78011203 7.67086363 142.40026522 C7.63332263 137.81990367 7.62982862 133.23951875 7.62271118 128.6590271 C7.6040722 119.98917987 7.5548481 111.3197873 7.49461424 102.65014017 C7.42751954 92.7784273 7.39455267 82.90669256 7.36444163 73.0348084 C7.30174815 52.7312853 7.1962316 32.42817131 7.0625 12.125 C5.17847889 11.32353439 3.2927166 10.52616117 1.40625 9.73046875 C-0.16866211 9.06374146 -0.16866211 9.06374146 -1.77539062 8.38354492 C-5.3921787 6.94403423 -9.02824828 5.82034672 -12.78125 4.80078125 C-14.9375 4.125 -14.9375 4.125 -16.96875 3.04296875 C-19.17967331 1.84327326 -19.17967331 1.84327326 -22.9375 2.125 Z " fill="#FEFEFE" transform="translate(159.9375,374.875)"/>
  <path d="M0 0 C0.8311734 0.32915405 1.6623468 0.65830811 2.51870728 0.99743652 C4.26308313 1.68986053 6.00601697 2.38592731 7.74755859 3.08544922 C10.42361617 4.16008651 13.10391204 5.22353443 15.78515625 6.28515625 C17.48202646 6.96029538 19.17865013 7.63605454 20.875 8.3125 C22.08112442 8.79221252 22.08112442 8.79221252 23.31161499 9.28161621 C28.92193841 11.53912591 28.92193841 11.53912591 30.0390625 12.65625 C29.98306549 19.86586533 28.42539306 26.83302516 26.8515625 33.83203125 C25.99916294 37.84404648 25.31112929 41.85740855 24.6640625 45.90625 C22.74140429 57.87523041 20.36807884 69.76098911 18.0390625 81.65625 C15.1696057 80.2215216 14.84845686 78.31432352 13.5390625 75.40625 C2.94723475 53.75984475 -16.36295993 37.59033617 -38.9609375 29.65625 C-48.84823572 26.39978102 -58.48642342 23.88217089 -68.9609375 23.65625 C-66.57507698 20.97086587 -64.1219538 19.56226141 -60.91015625 17.984375 C-59.90823242 17.48824707 -58.90630859 16.99211914 -57.87402344 16.48095703 C-56.80958008 15.96130371 -55.74513672 15.44165039 -54.6484375 14.90625 C-53.56208008 14.36983887 -52.47572266 13.83342773 -51.35644531 13.28076172 C-49.19822641 12.2151693 -47.03890751 11.15180146 -44.87841797 10.09082031 C-41.31382864 8.33805655 -37.76138723 6.5624655 -34.2109375 4.78125 C-32.62345703 3.99621094 -32.62345703 3.99621094 -31.00390625 3.1953125 C-28.88331186 2.1227654 -26.7827741 1.01002385 -24.69921875 -0.1328125 C-23.65121094 -0.69742187 -22.60320312 -1.26203125 -21.5234375 -1.84375 C-20.61722656 -2.3490625 -19.71101563 -2.854375 -18.77734375 -3.375 C-12.36255501 -5.5814738 -5.9707046 -2.41115118 0 0 Z " fill="#FDFCFD" transform="translate(423.9609375,512.34375)"/>
  <path d="M0 0 C3.10345937 29.51643859 3.10345937 29.51643859 3.65820312 41.88354492 C3.88712992 46.68483555 4.35323509 51.41728455 4.9375 56.1875 C6.16778634 66.24139075 6.71822618 76.34418135 7.30249023 86.4519043 C7.37927002 87.74265869 7.4560498 89.03341309 7.53515625 90.36328125 C7.600979 91.52126221 7.66680176 92.67924316 7.73461914 93.87231445 C7.97118565 96.66040421 8.43130949 99.26597815 9 102 C9.06652855 104.26995419 9.08543751 106.54168695 9.0625 108.8125 C9.05347656 109.97394531 9.04445313 111.13539063 9.03515625 112.33203125 C9.02355469 113.21246094 9.01195312 114.09289062 9 115 C6.66287378 112.06011862 4.922301 109.09004396 3.25 105.73046875 C2.73018555 104.68955078 2.21037109 103.64863281 1.67480469 102.57617188 C1.12211914 101.45791016 0.56943359 100.33964844 0 99.1875 C-0.58104492 98.01896484 -1.16208984 96.85042969 -1.76074219 95.64648438 C-5.76934583 87.56961301 -9.68146691 79.4485524 -13.52636719 71.29248047 C-16.42024464 65.19144919 -19.4295501 59.15793532 -22.5 53.14453125 C-23.29144522 51.58794354 -24.08278608 50.03130276 -24.87402344 48.47460938 C-26.05531071 46.15131811 -27.24062814 43.83058976 -28.4395752 41.51635742 C-29.55877873 39.35595509 -30.66335383 37.18860936 -31.765625 35.01953125 C-32.10770996 34.36950638 -32.44979492 33.71948151 -32.80224609 33.04975891 C-34.06582773 30.5376611 -35.02392414 28.5860781 -34.90771484 25.73925781 C-33.79264923 23.60269852 -32.64636823 22.58823445 -30.7109375 21.15234375 C-30.02330322 20.63438232 -29.33566895 20.1164209 -28.62719727 19.58276367 C-27.88397217 19.03982666 -27.14074707 18.49688965 -26.375 17.9375 C-25.61823975 17.37329346 -24.86147949 16.80908691 -24.08178711 16.2277832 C-22.5093302 15.05798273 -20.93334439 13.89291208 -19.35400391 12.73242188 C-17.09418345 11.06931402 -14.84823066 9.3891369 -12.60546875 7.703125 C-11.25836564 6.69717551 -9.9107343 5.69193289 -8.5625 4.6875 C-7.61479736 3.97678345 -7.61479736 3.97678345 -6.64794922 3.25170898 C-2.23147625 0 -2.23147625 0 0 0 Z " fill="#FCFCFD" transform="translate(490,679)"/>
  <path d="M0 0 C10.11179361 3.37059787 10.11179361 3.37059787 14.78515625 5.26953125 C15.80158203 5.68009766 16.81800781 6.09066406 17.86523438 6.51367188 C19.44788086 7.1565918 19.44788086 7.1565918 21.0625 7.8125 C28.01563575 10.6171601 34.9666534 13.40249951 42 16 C52.10918411 19.7401844 62.09048598 23.80412063 72.08886719 27.82910156 C76.39003674 29.55909227 80.69480001 31.28006843 85 33 C85 33.33 85 33.66 85 34 C65.76154582 34.87718873 46.56895114 35.12687847 27.3125 35.0625 C24.6412769 35.05687431 21.97005441 35.05290584 19.29882812 35.04882812 C12.86584188 35.03886686 6.43299138 35.01926686 0 35 C0 23.45 0 11.9 0 0 Z " fill="#FCFBFC" transform="translate(279,457)"/>
  <path d="M0 0 C0.99 0.33 1.98 0.66 3 1 C2.32195312 1.54527344 1.64390625 2.09054688 0.9453125 2.65234375 C-4.72923059 7.25013836 -10.24492376 11.94865685 -15.6484375 16.86328125 C-17.85299832 18.86642871 -20.07446121 20.84688166 -22.3125 22.8125 C-22.90675781 23.33457031 -23.50101562 23.85664063 -24.11328125 24.39453125 C-26.36955826 26.31446883 -28.68083988 28.15656503 -31 30 C-36.73789306 34.59388946 -42.34694812 39.26371246 -47.75 44.25 C-51.66113 47.85250425 -55.57827557 51.05218371 -60 54 C-60 53.01 -60 52.02 -60 51 C-57.9453125 49.0546875 -57.9453125 49.0546875 -55.125 46.875 C-51.3021101 43.85384149 -47.59246564 40.79213089 -44 37.5 C-39.70008209 33.58108748 -35.24080453 29.90829131 -30.71875 26.25 C-28.07852271 24.06498431 -25.5327028 21.80828609 -23 19.5 C-18.64329401 15.53117245 -14.14145629 11.78446057 -9.55078125 8.08984375 C-7.30009354 6.2458653 -5.14941986 4.33436589 -3 2.375 C-2.01 1.59125 -1.02 0.8075 0 0 Z " fill="#7C398A" transform="translate(468,212)"/>
  <path d="M0 0 C2.475 0.99 2.475 0.99 5 2 C4.01 2.33 3.02 2.66 2 3 C1.67 34.02 1.34 65.04 1 97 C0.67 97 0.34 97 0 97 C0 64.99 0 32.98 0 0 Z " fill="#762881" transform="translate(255,421)"/>
  <path d="M0 0 C0.66 0 1.32 0 2 0 C2.45628373 5.12200482 2.90144605 10.24481498 3.33666992 15.36865234 C3.48601637 17.10882104 3.63831175 18.84873941 3.79370117 20.58837891 C4.01751369 23.09997281 4.23043668 25.61229857 4.44140625 28.125 C4.51218887 28.89303955 4.5829715 29.6610791 4.65589905 30.45239258 C5.06414889 35.4770481 4.77387022 40.01558348 4 45 C3.67 45 3.34 45 3 45 C1.86900652 38.6472611 1.41025916 32.30452463 0.9375 25.875 C0.80118164 24.13476562 0.80118164 24.13476562 0.66210938 22.359375 C0.10656394 14.89083935 -0.1154805 7.48826903 0 0 Z " fill="#8270A9" transform="translate(491,688)"/>
  <path d="M0 0 C0.66 0 1.32 0 2 0 C2.47853834 5.62225492 2.94201593 11.24547286 3.39160156 16.87011719 C3.54664764 18.78321711 3.70579851 20.69598898 3.86914062 22.60839844 C4.10326763 25.35796318 4.32258873 28.10837116 4.5390625 30.859375 C4.61500641 31.71368103 4.69095032 32.56798706 4.76919556 33.44818115 C4.82940887 34.24870911 4.88962219 35.04923706 4.95166016 35.87402344 C5.00939606 36.57573669 5.06713196 37.27744995 5.12661743 38.00042725 C4.97476417 40.39853019 4.18919368 41.93451455 3 44 C2.09592115 40.00189934 1.72772702 36.10002541 1.46484375 32.01171875 C1.42186661 31.34968948 1.37888947 30.68766022 1.33460999 30.00556946 C1.24479824 28.60969262 1.15664828 27.21370797 1.07006836 25.81762695 C0.9385442 23.70427841 0.80073644 21.5914088 0.66210938 19.47851562 C0.24459929 12.97901592 -0.12641335 6.51450125 0 0 Z " fill="#7B7DB3" transform="translate(495,737)"/>
  <path d="M0 0 C4.13904925 1.35075133 8.21202966 2.81454611 12.2734375 4.3828125 C13.42714844 4.82753906 14.58085937 5.27226563 15.76953125 5.73046875 C16.95933594 6.19066406 18.14914062 6.65085937 19.375 7.125 C20.58800781 7.59292969 21.80101562 8.06085937 23.05078125 8.54296875 C26.03432481 9.69409973 29.01737853 10.84648243 32 12 C31.67 12.66 31.34 13.32 31 14 C24.76428313 12.93498187 19.1048968 10.44983529 13.25 8.125 C12.08855469 7.67769531 10.92710937 7.23039063 9.73046875 6.76953125 C8.62832031 6.33253906 7.52617187 5.89554688 6.390625 5.4453125 C5.38032227 5.04844238 4.37001953 4.65157227 3.32910156 4.24267578 C1 3 1 3 0 0 Z " fill="#843F8E" transform="translate(417,508)"/>
  <path d="M0 0 C0.96808594 -0.01224609 1.93617188 -0.02449219 2.93359375 -0.03710938 C8.40327425 -0.04827199 12.95777774 0.36673784 18.125 2.1875 C18.125 2.5175 18.125 2.8475 18.125 3.1875 C5.915 3.1875 -6.295 3.1875 -18.875 3.1875 C-13.10615344 -0.65839771 -6.70949361 0.00443163 0 0 Z " fill="#7D378A" transform="translate(352.875,560.8125)"/>
  <path d="M0 0 C0.99 0.33 1.98 0.66 3 1 C-1.62 5.62 -6.24 10.24 -11 15 C-11.33 14.01 -11.66 13.02 -12 12 C-8.04 8.04 -4.08 4.08 0 0 Z " fill="#7C3287" transform="translate(270,541)"/>
  <path d="M0 0 C4.31730413 0.47409648 6.33647461 3.03396703 9.25 6.0625 C10.14203125 6.98160156 11.0340625 7.90070312 11.953125 8.84765625 C12.62859375 9.55792969 13.3040625 10.26820313 14 11 C13.67 11.99 13.34 12.98 13 14 C12.39671875 13.32453125 11.7934375 12.6490625 11.171875 11.953125 C9.97304688 10.61507812 9.97304688 10.61507812 8.75 9.25 C7.96109375 8.36828125 7.1721875 7.4865625 6.359375 6.578125 C4.29407328 4.32133835 2.18264936 2.14260074 0 0 Z " fill="#7A3387" transform="translate(412,558)"/>
  <path d="M0 0 C0.66 0.33 1.32 0.66 2 1 C-8.2 7 -8.2 7 -13 7 C-13 6.34 -13 5.68 -13 5 C-11.03544508 4.2674541 -9.07079459 3.53516259 -7.10546875 2.8046875 C-5.42792796 2.16354946 -3.77195188 1.46606604 -2.125 0.75 C-1.42375 0.5025 -0.7225 0.255 0 0 Z " fill="#869FCB" transform="translate(543,459)"/>
  <path d="M0 0 C0.66 0.33 1.32 0.66 2 1 C-1.63 4.3 -5.26 7.6 -9 11 C-9.33 10.01 -9.66 9.02 -10 8 C-6.7 5.36 -3.4 2.72 0 0 Z " fill="#7E4D95" transform="translate(398,272)"/>
  <path d="M0 0 C4.38889325 0.66498383 7.9811485 2.18757677 12 4 C12 4.66 12 5.32 12 6 C10.55903414 5.57405412 9.12231288 5.13373367 7.6875 4.6875 C6.88699219 4.44386719 6.08648438 4.20023438 5.26171875 3.94921875 C2.90035427 2.95817977 1.66120007 1.91925057 0 0 Z " fill="#8B86B8" transform="translate(591,736)"/>
  <path d="M0 0 C-1.6232687 0.6708712 -3.24867578 1.33657029 -4.875 2 C-6.23238281 2.556875 -6.23238281 2.556875 -7.6171875 3.125 C-10 4 -10 4 -12 4 C-12 3.34 -12 2.68 -12 2 C-10.75579353 1.4654744 -9.50429064 0.94791389 -8.25 0.4375 C-7.55390625 0.14746094 -6.8578125 -0.14257812 -6.140625 -0.44140625 C-3.69987216 -1.07831803 -2.3596345 -0.80248831 0 0 Z " fill="#8A4793" transform="translate(488,179)"/>
  <path d="M0 0 C4.16138263 -0.08159574 7.9472484 0.01751476 12 1 C8.91111478 3.05925681 8.29064073 3.2390374 4.8125 3.125 C2.9253125 3.063125 2.9253125 3.063125 1 3 C0.67 2.01 0.34 1.02 0 0 Z " fill="#8597C7" transform="translate(353,580)"/>
  <path d="M0 0 C3.9492568 0.55105909 7.34920174 1.38935371 11 3 C11 3.66 11 4.32 11 5 C6.87248551 4.39301257 3.6678852 2.96189209 0 1 C0 0.67 0 0.34 0 0 Z " fill="#854090" transform="translate(328,475)"/>
  <path d="M0 0 C0.66 0.33 1.32 0.66 2 1 C0.8572081 2.16964602 -0.28931715 3.33564556 -1.4375 4.5 C-2.07558594 5.1496875 -2.71367187 5.799375 -3.37109375 6.46875 C-5 8 -5 8 -6 8 C-6 5.69 -6 3.38 -6 1 C-5.67 1.99 -5.34 2.98 -5 4 C-3.35 2.68 -1.7 1.36 0 0 Z " fill="#7A96C5" transform="translate(144,572)"/>
  <path d="M0 0 C-1.51671964 4.55015893 -5.16891053 6.50057264 -9 9 C-9 6 -9 6 -7.5390625 4.39453125 C-6.59160156 3.61142578 -6.59160156 3.61142578 -5.625 2.8125 C-4.68527344 2.01779297 -4.68527344 2.01779297 -3.7265625 1.20703125 C-2 0 -2 0 0 0 Z " fill="#7F4892" transform="translate(417,257)"/>
  <path d="M0 0 C0.33 0 0.66 0 1 0 C1 1.65 1 3.3 1 5 C1.66 5 2.32 5 3 5 C2.67 7.64 2.34 10.28 2 13 C1.67 13 1.34 13 1 13 C-0.10228696 8.59085217 -0.07654536 4.51617599 0 0 Z " fill="#9AA2CA" transform="translate(497,768)"/>
  <path d="M0 0 C-2.85410334 1.50560497 -5.68124642 2.63216796 -8.75 3.625 C-9.54921875 3.88539063 -10.3484375 4.14578125 -11.171875 4.4140625 C-11.77515625 4.60742188 -12.3784375 4.80078125 -13 5 C-8.83899185 0.72178035 -6.05684205 -0.275311 0 0 Z " fill="#8E9AC5" transform="translate(704,399)"/>
  <path d="M0 0 C8.57142857 0.85714286 8.57142857 0.85714286 12 3 C12 3.66 12 4.32 12 5 C10.56068883 4.54738642 9.12361001 4.08767021 7.6875 3.625 C6.88699219 3.36976563 6.08648438 3.11453125 5.26171875 2.8515625 C3 2 3 2 0 0 Z " fill="#854291" transform="translate(629,221)"/>
  <path d="M0 0 C-1.38009621 3.33523252 -2.84950652 5.18607951 -6 7 C-6.99 6.67 -7.98 6.34 -9 6 C-7.8803014 4.99406757 -6.7540588 3.9954151 -5.625 3 C-4.68527344 2.1646875 -4.68527344 2.1646875 -3.7265625 1.3125 C-2 0 -2 0 0 0 Z " fill="#81408E" transform="translate(452,227)"/>
  <path d="M0 0 C0.99 0.33 1.98 0.66 3 1 C1.35 2.65 -0.3 4.3 -2 6 C-2.99 5.67 -3.98 5.34 -5 5 C-3.35 3.35 -1.7 1.7 0 0 Z " fill="#773286" transform="translate(442,234)"/>
  <path d="M0 0 C0.66 0.33 1.32 0.66 2 1 C-0.97 3.475 -0.97 3.475 -4 6 C-4.33 4.68 -4.66 3.36 -5 2 C-2.625 0.9375 -2.625 0.9375 0 0 Z " fill="#E6D8E8" transform="translate(467,211)"/>
<title>CybersCool Defcon Inc.</title></svg>
