<?xml version="1.0" encoding="UTF-8"?>
<svg id="Layer_2" xmlns="http://www.w3.org/2000/svg" width="1200" height="1200" version="1.1" viewBox="0 0 1200 1200">
  <!-- Generator: Adobe Illustrator 30.1.0, SVG Export Plug-In . SVG Version: 2.1.1 Build 136)  -->
  <g>
    <path d="M599.99998,1138.50004c-72.72412,0-143.24023-14.22949-209.58936-42.29297-64.11719-27.11914-121.71289-65.95508-171.18799-115.42969-49.47461-49.47461-88.31055-107.07031-115.43018-171.1875-28.06299-66.34961-42.29248-136.86621-42.29248-209.58984s14.22949-143.24023,42.29248-209.58984c27.11963-64.1167,65.95557-121.7124,115.43018-171.18701s107.0708-88.31152,171.18799-115.43066c66.34912-28.06299,136.86523-42.29248,209.58936-42.29248s143.23975,14.22949,209.58936,42.29248c64.11719,27.11914,121.71289,65.95557,171.1875,115.43066,49.47559,49.47461,88.31152,107.07031,115.43065,171.18701,28.06349,66.34961,42.29298,136.86572,42.29298,209.58984s-14.22949,143.24023-42.29298,209.58984c-27.11913,64.11621-65.95506,121.71289-115.43065,171.1875-49.47461,49.47461-107.07031,88.31055-171.1875,115.42969-66.34961,28.06348-136.86523,42.29297-209.58936,42.29297Z" fill="#fff"/>
    <path d="M599.99998,122.99998c64.44864,0,126.90454,12.59497,185.63228,37.43454,56.7859,24.01865,107.8109,58.42911,151.65773,102.27545,43.84634,43.84683,78.25681,94.87183,102.27545,151.65773,24.83957,58.72774,37.43454,121.18364,37.43454,185.63228s-12.59497,126.90455-37.43454,185.63228c-24.01865,56.7859-58.42911,107.8109-102.27545,151.65773-43.84683,43.84634-94.87183,78.25681-151.65773,102.27545-58.72774,24.83954-121.18364,37.43454-185.63228,37.43454s-126.90455-12.595-185.63228-37.43454c-56.7859-24.01865-107.8109-58.42911-151.65773-102.27545-43.84634-43.84683-78.25681-94.87183-102.27545-151.65773-24.83954-58.72773-37.43454-121.18364-37.43454-185.63228s12.595-126.90454,37.43454-185.63228c24.01865-56.7859,58.42911-107.8109,102.27545-151.65773,43.84683-43.84634,94.87183-78.25681,151.65773-102.27545,58.72773-24.83957,121.18364-37.43454,185.63228-37.43454M599.99998-.00002C268.62907-.00002-.00002,268.62907-.00002,599.99998s268.62909,600,600,600,600-268.62909,600-600S931.37089-.00002,599.99998-.00002h0Z" fill="blue"/>
  </g>
  <g>
    <circle cx="600" cy="600" r="600" fill="none"/>
    <path d="M286.86424,1058.2266l23.28174-35.19141c1.85596-2.80469,3.05859-5.20703,3.60693-7.20898.55029-2.00195.59521-4.24023.1377-6.71289l23.05566,15.25391c-2.6709.16992-4.88232,1.11133-6.63477,2.82129-.82129.77441-2.28564,2.75098-4.3916,5.93457l-23.44238,35.43262c1.09912,1.03613,2.4292,2.07227,3.99268,3.10742,2.21191,1.46289,4.22363,2.40527,6.03613,2.83008,1.47314.35254,3.74121.49805,6.80811.43359l-12.04102,10.99219c-.34033-.30371-.78174-.63379-1.32129-.99121l-8.95361-6.15625-17.95947-11.88184c-7.65771-5.06641-12.45654-8.00879-14.39746-8.82715l11.79688-11.50195c-.17139,1.90137.10742,3.50195.8374,4.79883.73145,1.29785,2.17627,2.66113,4.33252,4.08789,1.67236,1.10645,3.42383,2.03223,5.25586,2.7793Z" fill="#fff"/>
  </g>
  <g>
    <circle cx="600" cy="600" r="600" fill="none"/>
    <path d="M265.67039,1009.19828l10.55371-12.9209c-1.18848-2.04199-3.34717-4.3418-6.47607-6.89746-4.32812-3.53516-8.64209-4.98828-12.94482-4.35742l10.9082-8.2373,29.95508,24.46777c-2.28906-.08398-4.26953.54883-5.94336,1.89746-.76562.58789-2.18213,2.14551-4.24805,4.6748l-21.89502,26.80566c-2.62549,3.21387-4.11084,5.53711-4.45898,6.9668-.34668,1.43164-.32861,2.875.05322,4.33105l-24.42676-19.95312c-.98535-.80469-1.86182-1.30566-2.62939-1.50391l8.08643-9.89941c-.03662,1.96973.34375,3.60254,1.14258,4.89844.65527,1.03418,1.88232,2.28809,3.68213,3.75781l4.30664,3.51758,8.92627-10.92773-7.13525-5.82812c-.81348-.66406-1.5835-1.0791-2.30762-1.24219l7.71826-9.44922c-.23926,1.51953-.0918,2.78223.44141,3.79004.43262.78223,1.33496,1.7334,2.70605,2.85352l3.98535,3.25586Z" fill="#fff"/>
    <path d="M215.30564,943.78813l11.67969-5.45801c4.46045,2.42578,8.95996,5.9082,13.49854,10.44629,5.63428,5.63477,9.11719,11.58203,10.44678,17.8418,1.05664,5.04785.8916,9.94824-.49902,14.70215-1.38818,4.75391-3.88232,8.92969-7.48291,12.53027-3.12988,3.12988-6.7876,5.47852-10.9751,7.04297-4.18604,1.56543-8.35205,2.1123-12.50098,1.64355-7.55078-.82227-14.76953-4.67578-21.65674-11.5625-2.97266-2.97266-5.71191-6.26074-8.21631-9.85938l8.15771-9.09766c1.09619,5.32227,3.36572,9.7041,6.80811,13.14648,3.52148,3.52148,7.42529,4.99902,11.7085,4.43164,4.28564-.56738,8.71582-3.13965,13.29346-7.71777,4.85205-4.85254,7.49316-9.87891,7.92334-15.08398.43115-5.20312-1.40869-9.85938-5.51709-13.96777-3.52148-3.52148-9.07666-6.53516-16.66797-9.03809Z" fill="#fff"/>
    <path d="M190.54344,933.96684l11.63818-9.23438c2.51465-1.99512,4.07178-3.37207,4.67041-4.12988,1.37305-1.65332,2.05078-3.60352,2.03271-5.85059l14.54785,18.33496c-2.21777-.57031-4.26611-.39258-6.146.5332-.87354.41113-2.58984,1.63086-5.14795,3.66016l-27.24316,21.61621c-3.20752,2.54492-5.1333,4.48047-5.77881,5.80371-.64453,1.32422-.93457,2.73828-.87256,4.24219l-14.54834-18.33594c1.72803.39551,3.34375.38477,4.84814-.03223,1.14355-.34082,3.27344-1.75,6.39453-4.22656l8.64795-6.86133-9.38965-11.83301-8.64746,6.86133c-3.16357,2.50977-5.0874,4.4248-5.77197,5.74512-.68262,1.31934-.97607,2.75293-.87939,4.2998l-14.59961-18.40039c1.71875.47363,3.35107.48438,4.89941.03223,1.09961-.30566,3.23096-1.71582,6.39453-4.22559l27.24365-21.61621c3.25098-2.5791,5.16504-4.48633,5.73926-5.71973.68115-1.45703.98389-2.89941.91162-4.3252l14.6001,18.40039c-2.17529-.60547-4.22314-.42773-6.14648.53223-.91748.44629-2.6333,1.66602-5.14795,3.66113l-11.63867,9.23438,9.38965,11.83398Z" fill="#fff"/>
    <path d="M178.12596,872.45609l8.82861,14.35156c-3.71875-.76562-7.72314.16992-12.01221,2.80859l-27.57031,16.96094c-2.78027,1.71094-4.75049,3.3125-5.91113,4.80664-1.16016,1.49316-2.16895,3.70605-3.02979,6.63867l-9.43701-15.34082,16.4165-42.06152-20.71338,12.74219c-2.40381,1.47852-4.10107,2.7832-5.0957,3.91406-1.29395,1.38086-2.23682,3.22754-2.82812,5.54004l-8.78516-14.28027c2.10303.46094,4.01855.48535,5.74512.07227,1.72803-.41309,3.81689-1.37402,6.26709-2.88086l40.64844-25.00684c3.13867,8.26953,2.84424,17.18848-.88477,26.75781l-10.69922,27.43555,21.13721-13.00293c2.45117-1.50781,4.23828-2.93164,5.36182-4.27344,1.12451-1.33984,1.97852-3.06836,2.56201-5.18164Z" fill="#fff"/>
    <path d="M144.03025,810.66801l10.36963,21.07617c-2.04639-1.02832-4.08643-1.28809-6.11963-.78125-.94092.2168-2.87646,1.04492-5.80664,2.48633l-31.2041,15.35352c-3.67383,1.80762-5.96631,3.29102-6.87695,4.44727-.91064,1.1582-1.49365,2.47852-1.75146,3.96094l-10.37012-21.07617c1.5791.82715,3.17285,1.18359,4.78174,1.07031,1.18945-.0918,3.56982-1.0166,7.14453-2.77539l31.20459-15.35352c2.87988-1.41699,4.71729-2.44434,5.51318-3.08301,1.64209-1.30078,2.68066-3.07617,3.11523-5.3252Z" fill="#fff"/>
    <path d="M108.67332,757.96l12.88965-.24707c3.09131,4.02832,5.79053,9.03711,8.0957,15.02734,2.86182,7.43555,3.63037,14.28516,2.30469,20.5459-1.0835,5.04199-3.22363,9.45312-6.42432,13.2334-3.19873,3.78125-7.17334,6.58496-11.92529,8.41406-4.13086,1.58984-8.42725,2.25098-12.88867,1.98145s-8.49121-1.45996-12.0918-3.57324c-6.56738-3.81641-11.6001-10.26855-15.09863-19.35742-1.51025-3.92383-2.67871-8.04102-3.50635-12.34668l11.14844-5.00195c-1.15918,5.30762-.86377,10.23438.88477,14.77832,1.78906,4.64746,4.75684,7.58203,8.90186,8.80273,4.14697,1.2207,9.23975.66797,15.28174-1.65723,6.40381-2.46484,10.8584-5.9873,13.36377-10.56836,2.50635-4.58008,2.71533-9.58301.62842-15.00488-1.78857-4.64746-5.64258-9.65723-11.56396-15.02637Z" fill="#fff"/>
    <path d="M61.26707,752.85648l-5.06885-19.69336,40.39014-27.87988c2.72559-1.84375,4.62695-3.33398,5.70605-4.46875s2.33496-2.91504,3.76758-5.34082l6.31055,24.51562c-2.41406-1.83398-4.45312-2.53906-6.11426-2.11133-.91064.23438-2.46875,1.06445-4.67334,2.48828l-6.17285,3.98926,4.34473,16.87891,7.35205.59375c2.68604.22266,4.53857.20312,5.55566-.05859,1.34033-.3457,2.73291-1.81836,4.17676-4.41797l4.48975,17.44238c-2.33057-1.28516-4.24512-2.12109-5.74463-2.50684-1.49902-.38574-4.05371-.71289-7.66699-.9834l-36.13428-2.86914c-3.3833-.27148-5.47803-.30371-6.28174-.09668-1.60742.41309-3.01953,1.9209-4.23633,4.51855ZM88.25926,729.19633l-15.26855,10.27148,18.24756,1.30273-2.979-11.57422Z" fill="#fff"/>
    <path d="M57.74998,681.31156l36.03369-5.40625c.57812-2.49219.59473-5.54492.05322-9.15625-.65674-4.37695-2.50195-8.10156-5.53711-11.1709l12.55859,1.47266,5.5415,36.93652c-1.6377-1.60059-3.50293-2.4668-5.59375-2.60156-.9624-.0791-3.05811.12305-6.2876.60742l-34.3916,5.16016c-3.99414.59863-6.61621,1.30078-7.86768,2.10352-1.25.80371-2.21826,1.89941-2.90576,3.28906l-3.48486-23.22852c1.25391,1.26758,2.66357,2.09082,4.23145,2.46973,1.16113.27441,3.70996.11523,7.6499-.47559Z" fill="#fff"/>
  </g>
  <g>
    <circle cx="600" cy="600" r="600" fill="none"/>
    <path d="M62.14207,600.81205l19.49414-.31592c.92822-2.60107,1.354-6.2627,1.27734-10.98291-.10596-6.53027-2.06104-11.47803-5.86768-14.84521l15.57959,3.53125.73242,45.19629c-1.6499-2.10742-3.70801-3.39941-6.17432-3.87793-1.10303-.23926-3.56152-.33008-7.37744-.26855l-40.44385.65625c-4.84912.07812-8.04395.50293-9.5835,1.27051-1.54004.76953-2.81494,1.87402-3.82715,3.3125l-.59717-36.85547c-.02441-1.48682-.23682-2.64746-.63867-3.48193l14.93604-.24219c-1.78613,1.45215-2.9585,3.02344-3.51318,4.71338-.4292,1.36523-.62354,3.40576-.57959,6.12109l.10547,6.49805,16.48779-.26758-.1748-10.76514c-.02002-1.22754-.22998-2.22754-.63037-2.99707l14.25684-.23096c-1.53711.93115-2.55322,2.01465-3.05176,3.25049-.37207.97656-.5415,2.49951-.50781,4.56787l.09766,6.01318Z" fill="#fff"/>
  </g>
  <g>
    <circle cx="600" cy="600" r="600" fill="none"/>
    <path d="M35.81639,563.34184l2.21289-19.62939c.65088-5.77344,1.27148-9.79639,1.86133-12.06885,1.10156-4.33008,2.8999-7.94189,5.39795-10.83447,3.0127-3.50244,6.75439-6.07324,11.22656-7.71338,4.47314-1.63867,9.21143-2.17725,14.21436-1.61328,5.5542.62598,10.46973,2.46191,14.74805,5.50488,4.27979,3.04395,7.32812,6.86816,9.14795,11.47168,1.12012,2.91162,1.68262,6.31592,1.68848,10.21338-.00928,2.06006-.28711,5.50928-.83252,10.34717l-2.34277,20.78418c-1.16943-1.96924-2.74756-3.2876-4.73242-3.95801-.90967-.32422-2.98633-.67041-6.23145-1.03662l-34.22803-3.8584c-4.28906-.4834-7.12891-.48242-8.52002,0-1.39062.48438-2.59375,1.28174-3.61035,2.39111ZM47.3491,544.76273l38.43457,4.33301c.68115-1.59375,1.1084-3.16016,1.28174-4.7002.5332-4.72803-.87061-8.45068-4.2124-11.16602-3.34033-2.71533-7.92529-4.40186-13.75439-5.05859-6.10303-.68799-11.1499-.00439-15.14062,2.05176-3.99023,2.05615-6.21826,5.146-6.68311,9.26953-.17334,1.54004-.14844,3.29688.07422,5.27051Z" fill="#fff"/>
    <path d="M107.9741,476.84184l-5.25439-1.22217c1.79834,3.25977,2.9082,6.05957,3.3291,8.40088.42041,2.34277.28662,4.99609-.40234,7.95947-1.09082,4.68896-3.50146,8.21826-7.23486,10.58838-3.46631,2.20557-8.00195,2.65527-13.60791,1.35107l-29.02246-6.75c-3.98779-.92773-6.70117-1.23096-8.13867-.91309-1.4375.31934-2.7251.97168-3.86328,1.95605l5.30225-22.79736c.76514,1.59863,1.77881,2.85693,3.04199,3.77539.97803.68262,3.40625,1.47363,7.28662,2.37646l25.46533,5.92285c4.20361.97754,7.23145,1.0293,9.08252.15234,1.85205-.87549,3.05273-2.49854,3.60449-4.87109.70166-3.01758-.00684-5.34082-2.12842-6.97119-1.49414-1.14258-4.29004-2.19092-8.38672-3.14355l-24.25244-5.64111c-3.98779-.92725-6.70117-1.23096-8.13867-.91309-1.43799.31982-2.71875.94434-3.84473,1.87549l5.30225-22.79736c.69824,1.64014,1.70557,2.92529,3.02295,3.85596.92383.67041,3.35352,1.46191,7.28711,2.37646l33.87256,7.87842c3.93506.91553,6.63086,1.23096,8.08936.94434,1.45898-.28516,2.76318-.94727,3.91309-1.9873l-4.32471,18.59375Z" fill="#fff"/>
    <path d="M119.61473,398.12357l9.93799,8.21143c-.27979,5.06982-1.49609,10.62793-3.65088,16.67383-2.67432,7.50586-6.55469,13.20264-11.63965,17.0874-4.10693,3.11816-8.60547,5.07031-13.49609,5.85254-4.89014.78369-9.73242.3208-14.52832-1.38867-4.16943-1.48584-7.85986-3.78369-11.06836-6.89551-3.2085-3.11084-5.48926-6.64014-6.84375-10.58936-2.49512-7.17383-2.10889-15.34766,1.16064-24.52197,1.41113-3.96094,3.20703-7.84473,5.38525-11.65039l11.71582,3.46973c-4.33789,3.27148-7.32422,7.20117-8.9585,11.78711-1.67139,4.69092-1.33252,8.85107,1.0166,12.47754,2.3501,3.62793,6.57324,6.52783,12.67188,8.70068,6.46338,2.30371,12.1377,2.53418,17.02344.69141,4.88574-1.84131,8.3042-5.49951,10.25439-10.97266,1.67139-4.69092,2.01221-11.00146,1.01953-18.93311Z" fill="#fff"/>
    <path d="M86.88963,363.50688l8.95947-18.25488,48.81299,5.0957c3.27002.37256,5.68262.47754,7.24072.31787,1.55762-.16016,3.66992-.69531,6.33545-1.60596l-11.15332,22.72559c-.64014-2.96387-1.73047-4.8252-3.271-5.58105-.84375-.41406-2.56689-.79785-5.16797-1.14941l-7.28271-.98584-7.67969,15.64746,5.19873,5.23242c1.89502,1.9165,3.31494,3.10645,4.25781,3.56885,1.24219.60986,3.25781.39697,6.0459-.63818l-7.93555,16.16846c-.93359-2.49219-1.84424-4.37256-2.73291-5.64062-.88721-1.26758-2.61475-3.17871-5.18359-5.73389l-25.57959-25.68311c-2.39307-2.40674-3.96289-3.79443-4.70801-4.15967-1.49023-.73145-3.54297-.50537-6.15674.67627ZM122.78123,363.0933l-18.27832-2.12939,13.0127,12.8584,5.26562-10.729Z" fill="#fff"/>
    <path d="M132.33836,301.26176l30.67041,19.0498c2.44482,1.51855,4.5293,2.48828,6.25488,2.90771,1.72559.42188,3.64111.40527,5.74463-.04688l-12.48047,20.09473c-.21094-2.28076-1.0708-4.14893-2.57617-5.60596-.68213-.68359-2.40918-1.88721-5.18311-3.61035l-30.88232-19.18115c-.85889.96533-1.71289,2.12842-2.55908,3.49121-1.19727,1.92773-1.9541,3.67188-2.27295,5.23242-.26562,1.26855-.33398,3.2124-.20361,5.8335l-9.69678-10.02881c.25098-.29883.52246-.68457.81494-1.15479l5.04541-7.80908,9.72217-15.65283c4.14502-6.67383,6.54395-10.85059,7.19678-12.53076l10.12744,9.80762c-1.63086-.1001-2.99268.17773-4.08398.83398-1.09229.65771-2.22266,1.92676-3.39014,3.80615-.90527,1.45752-1.6543,2.97852-2.24805,4.56348Z" fill="#fff"/>
    <path d="M199.02879,289.45316l-13.96338,18.8877c-.02637-2.29004-.73193-4.22168-2.11523-5.79541-.625-.73633-2.24902-2.07568-4.875-4.01709l-27.96484-20.67383c-3.29199-2.43359-5.6626-3.78955-7.10791-4.06787-1.44629-.27734-2.88721-.18945-4.32275.26221l13.96338-18.8877c-.00977,1.78271.40479,3.36182,1.24463,4.73877.62695,1.01514,2.54199,2.70508,5.74561,5.07324l27.96484,20.67432c2.58105,1.90771,4.33691,3.06885,5.27002,3.48291,1.90918.86133,3.96338.96924,6.16064.32275Z" fill="#fff"/>
    <path d="M180.03953,220.76225c6.29834-6.98633,13.37012-10.78027,21.21387-11.38281,7.84375-.60107,15.09424,2.09766,21.75244,8.1001,6.65771,6.00195,10.05322,13.12451,10.18604,21.36377.13281,8.24072-3.04346,15.95703-9.52637,23.14844-6.07715,6.74072-13.14404,10.40771-21.2041,11.00049-8.06006.59473-15.33594-2.03564-21.83008-7.89014-6.53418-5.89111-9.86035-12.98633-9.97607-21.28662-.1167-8.2998,3.01123-15.98389,9.38428-23.05322ZM185.80223,227.63383c-2.96484,3.28809-4.00146,7.10303-3.10986,11.44434.89062,4.34229,3.53564,8.49561,7.93262,12.45947,2.63037,2.37158,5.52051,4.28906,8.67236,5.75098,3.15088,1.46338,5.94189,2.21045,8.37305,2.24023,4.1543.021,7.60107-1.48975,10.34375-4.53174,2.59277-2.87598,3.70605-6.34229,3.33984-10.39844-.42383-4.40527-2.85498-8.60889-7.29395-12.61035-5.21875-4.70459-10.53418-7.48535-15.94678-8.3418-5.05859-.83447-9.1626.49463-12.31104,3.9873Z" fill="#fff"/>
    <path d="M259.73143,223.96244l-12.74219,11.02344c.15625-3.79297-1.41211-7.59424-4.70654-11.40283l-21.17822-24.48096c-2.13574-2.46875-4.03369-4.15527-5.69482-5.06055-1.66016-.9043-4.00732-1.54395-7.04004-1.92139l13.62158-11.78369,44.15625,9.43164-15.91064-18.39209c-1.84619-2.13428-3.40723-3.59961-4.68359-4.39893-1.57129-1.05518-3.54541-1.68799-5.92334-1.8999l12.67969-10.96875c-.11572,2.14941.16846,4.04346.85449,5.68115.68555,1.63916,1.97021,3.54639,3.85205,5.72168l31.22412,36.09326c-7.65625,4.42871-16.50684,5.57422-26.55127,3.43408l-28.80078-6.14307,16.23633,18.76855c1.88281,2.17627,3.57568,3.71094,5.08057,4.604,1.50391.89404,3.34717,1.4585,5.52637,1.69434Z" fill="#fff"/>
    <path d="M293.1035,125.72025l17.31738-10.65918,38.56592,30.354c2.56641,2.05957,4.55127,3.43604,5.9541,4.13184,1.40332.6958,3.4751,1.37012,6.21533,2.02246l-21.55811,13.26953c1.03955-2.84814,1.11035-5.00439.21143-6.46533-.49316-.80078-1.74609-2.04443-3.75781-3.72998l-5.63379-4.71924-14.84375,9.13672,1.60498,7.19922c.58008,2.63232,1.14648,4.396,1.69678,5.29053.72559,1.17822,2.54395,2.07373,5.4541,2.68555l-15.33838,9.44092c.54053-2.60596.77344-4.68213.69824-6.22852-.07422-1.5459-.51562-4.08398-1.32471-7.61523l-7.93115-35.37061c-.73975-3.31201-1.32715-5.32324-1.7627-6.02979-.87012-1.41357-2.72656-2.31738-5.56787-2.71289ZM323.68016,144.52006l-14.32324-11.55322,4.14502,17.81836,10.17822-6.26514Z" fill="#fff"/>
    <path d="M376.04197,144.84867l-15.27832,7.10352c1.19141-3.60449.72656-7.69043-1.39648-12.25635l-13.64746-29.35254c-1.37598-2.95996-2.73828-5.10254-4.0874-6.4292-1.34814-1.3252-3.42969-2.58447-6.24219-3.7793l16.33203-7.59375,39.87305,21.18652-10.25293-22.05176c-1.18994-2.55908-2.28857-4.39648-3.29639-5.51562-1.22168-1.4458-2.94629-2.59619-5.1748-3.45215l15.20264-7.06836c-.70117,2.03516-.94775,3.93457-.7373,5.69775.20947,1.76465.92139,3.95068,2.13428,6.55908l20.12061,43.27588c-8.57764,2.15771-17.40283.83008-26.47412-3.9834l-26.00928-13.81104,10.46289,22.50342c1.21338,2.60938,2.41992,4.5498,3.62207,5.82178,1.20068,1.27246,2.81787,2.3208,4.84912,3.14551Z" fill="#fff"/>
    <path d="M398.27439,71.67973l18.77686-6.13623c5.52246-1.80469,9.43994-2.91064,11.75195-3.31689,4.39648-.79541,8.4292-.65918,12.09766.4126,4.43701,1.28662,8.32959,3.62354,11.67822,7.01123,3.34766,3.38916,5.80518,7.47607,7.36914,12.26123,1.73633,5.31299,2.10693,10.54736,1.11475,15.70264-.99268,5.15723-3.20654,9.51807-6.63867,13.08447-2.18359,2.22803-5.04736,4.15332-8.59082,5.77637-1.87744.84717-5.13086,2.02637-9.75879,3.53857l-19.88135,6.49756c1.30664-1.88135,1.85107-3.86426,1.63623-5.94873-.08252-.9624-.62939-2.99512-1.64404-6.09912l-10.69971-32.74072c-1.34082-4.10254-2.52051-6.68604-3.53711-7.75098-1.01807-1.06445-2.24316-1.82812-3.67432-2.29199ZM419.96434,74.45854l12.01514,36.76465c1.73242-.04248,3.33496-.3042,4.80811-.78564,4.52246-1.47803,7.32617-4.30029,8.40967-8.46777,1.08301-4.16602.71387-9.0376-1.1084-14.61328-1.9082-5.83789-4.62549-10.14551-8.15283-12.92236-3.52686-2.77637-7.2627-3.52051-11.20752-2.23096-1.47314.48096-3.06104,1.2334-4.76416,2.25537Z" fill="#fff"/>
  </g>
  <g>
    <circle cx="600" cy="600" r="600" fill="none"/>
    <path d="M586.46043,56.84184l15.80762,23.08447c3.6875,5.40039,6.47461,8.84131,8.35547,10.32129-1.375.2168-4.19336.40479-8.45117.5625-5.86084.21777-9.79199-.13477-11.79102-1.05713-2-.92236-4.29443-3.43945-6.8833-7.55225l-10.31982-16.22803.52637,14.18311c.11914,3.20752.30713,5.3042.56592,6.2915.51758,2.02979,1.71533,3.70215,3.59131,5.01611l-23.47266.87109c1.77344-1.44922,2.84229-3.20557,3.20947-5.26855.18555-.94775.21924-3.05273.09814-6.31592l-1.29004-34.75293c-.15186-4.0918-.57129-6.78955-1.25537-8.09326-.68555-1.30322-1.65332-2.37451-2.90186-3.21436l23.47266-.87109c-1.39941,1.104-2.37451,2.41357-2.92725,3.9292-.40186,1.12305-.52783,3.67383-.38037,7.65527l.53906,14.51514,9.48486-12.97705c2.31787-3.18652,3.69727-5.17529,4.13916-5.96729.44043-.7915.64453-1.65674.60938-2.59766-.06152-1.65869-1.3125-3.27344-3.75098-4.84424l21.48242-.79736-18.45801,24.10742Z" fill="#fff"/>
    <path d="M636.57859,92.15434l-23.46191-1.12061c1.88965-1.29346,3.10352-2.95312,3.64453-4.97754.26465-.92871.47656-3.02344.63281-6.28516l1.65918-34.7373c.19531-4.08936.00586-6.81348-.56543-8.17041-.57324-1.35693-1.44629-2.50586-2.61914-3.44873l23.46191,1.12061c-1.4873.98193-2.57031,2.2041-3.24902,3.66699-.49609,1.08545-.83789,3.61621-1.02734,7.5957l-1.65918,34.7373c-.15332,3.20654-.14355,5.31152.03027,6.31689.34375,2.06641,1.39551,3.83447,3.15332,5.30225Z" fill="#fff"/>
    <path d="M667.8618,48.86918l-4.35254,36.17627c2.24902,1.21875,5.18848,2.04541,8.81348,2.48145,4.39453.52881,8.47559-.26172,12.24023-2.37305l-4.75293,11.71729-37.08301-4.46143c1.97754-1.1543,3.30859-2.72266,3.99316-4.70264.33105-.90723.69336-2.98096,1.08301-6.22314l4.1543-34.52832c.48242-4.00928.50195-6.72412.06055-8.14355-.44336-1.41797-1.24316-2.64307-2.40039-3.67432l23.32031,2.80566c-1.55469.87256-2.72266,2.01318-3.50488,3.42383-.57227,1.04688-1.0957,3.54639-1.57129,7.50195Z" fill="#fff"/>
    <path d="M713.9077,56.45463l-7.38379,35.68115c2.13867,1.40381,4.99805,2.4751,8.57422,3.21484,4.33398.89697,8.4668.45312,12.39551-1.3335l-5.72266,11.2749-36.5752-7.56836c2.06836-.9834,3.52539-2.43408,4.375-4.34961.40625-.87598.94141-2.91211,1.60352-6.10986l7.04688-34.05518c.81836-3.95459,1.06641-6.6582.74512-8.10986-.32227-1.4502-1.01562-2.73828-2.08203-3.86328l23.00195,4.75928c-1.62305.73828-2.88281,1.77686-3.78125,3.1167-.6582.99463-1.38965,3.44189-2.19727,7.34277Z" fill="#fff"/>
    <path d="M729.8198,105.24516l.84863-12.8374c4.08789,5.97803,9.3623,9.94287,15.8252,11.89795,5.77246,1.74609,9.27539.58105,10.50977-3.49805.49609-1.64111.35352-3.12988-.42676-4.46484-.78223-1.33398-2.77246-3.49707-5.97168-6.48877-5.10449-4.72314-8.32715-8.2124-9.66699-10.46875-2.35059-3.88916-2.82812-8.13916-1.43359-12.74707,1.50586-4.97754,4.58691-8.38135,9.24512-10.21045,4.65723-1.82812,10.13672-1.78955,16.44043.11719,5.03125,1.52197,9.52344,3.77783,13.47559,6.76465l-2.95605,9.77148c-3.59082-3.80273-7.16016-6.24121-10.70801-7.31445-2.27734-.68896-4.23535-.76123-5.87402-.21631s-2.69922,1.61182-3.17969,3.20068c-.40039,1.32422-.21191,2.61035.56738,3.85693.77832,1.24756,2.43262,2.94678,4.96094,5.09961,4.9834,4.16699,8.4375,7.8418,10.36621,11.02637,2.62305,4.32031,3.22266,8.8374,1.79688,13.55078-1.73047,5.72021-5.34375,9.5415-10.83789,11.46289-4.90723,1.6958-10.9082,1.46973-18.00488-.67725-5.19141-1.57031-10.18262-4.17871-14.97656-7.8252Z" fill="#fff"/>
  </g>
  <g>
    <circle cx="600" cy="600" r="600" fill="none"/>
    <path d="M893.0532,154.84037l-9.17676,13.93213c1.39062,1.91016,3.77344,3.97656,7.14746,6.19873,4.66699,3.07422,9.10742,4.07812,13.32227,3.01123l-10.00781,9.30957-32.30078-21.27588c2.28516-.15039,4.19043-.98242,5.71875-2.49512.70117-.66406,1.9502-2.35791,3.74707-5.08496l19.03809-28.9043c2.2832-3.46582,3.52344-5.92822,3.72363-7.38721.19824-1.45898.03223-2.89307-.49609-4.30176l26.33984,17.34961c1.0625.69971,1.98535,1.10889,2.76855,1.22754l-7.03125,10.67432c-.16504-1.96289-.70996-3.54883-1.6377-4.75586-.75781-.9624-2.10645-2.0835-4.04688-3.36182l-4.64453-3.05908-7.76074,11.78369,7.69336,5.06787c.87695.57764,1.68555.91113,2.42285.99951l-6.71191,10.18896c.08301-1.53564-.19238-2.77637-.82617-3.72461-.51074-.73389-1.50488-1.58789-2.9834-2.56201l-4.29785-2.83057Z" fill="#fff"/>
    <path d="M963.87156,168.66996l12.18652,9.87842-53.20801,33.47656c-3.30762-5.67285-5.27246-9.88379-5.89355-12.63135-.62207-2.74805-.32715-5.8374.88867-9.26904l13.56445-39.0083c.80957-2.40527,1.20703-5.00439,1.19141-7.7959l15.86133,12.85791c-.18359.13721-.34375.29199-.4834.46338-.80176.98926-2.04297,3.79297-3.72266,8.41455l-11.1377,30.61133,26.64551-17.18555c1.50879-.98389,2.61328-1.90527,3.31055-2.76562,1.25488-1.54736,1.51953-3.89648.79688-7.04639Z" fill="#fff"/>
    <path d="M974.96434,221.34672l-11.72949,11.86279c.98926,2.146,2.9209,4.63965,5.79297,7.47998,3.97461,3.9292,8.13184,5.78369,12.47461,5.56396l-11.63965,7.16699-27.50293-27.19482c2.27051.30078,4.30176-.1416,6.09668-1.32568.81738-.51318,2.375-1.92969,4.6709-4.25195l24.33496-24.61084c2.91797-2.95117,4.61719-5.12305,5.09961-6.51416.48047-1.39209.59863-2.83057.35645-4.31592l22.42773,22.17627c.9043.89453,1.72949,1.47656,2.47461,1.74658l-8.9873,9.08887c.22363-1.95703-.00098-3.61963-.67285-4.98486-.55469-1.0918-1.65723-2.45557-3.31055-4.08936l-3.9541-3.91016-9.9209,10.0332,6.55176,6.47803c.74707.73828,1.47363,1.22412,2.17969,1.45459l-8.5791,8.67627c.38281-1.48975.35547-2.76074-.08008-3.81445-.35645-.81982-1.16504-1.85254-2.42383-3.09717l-3.65918-3.61816Z" fill="#fff"/>
    <path d="M1023.33641,244.5933l-27.85938,23.48389c.8125,2.42529,2.39746,5.03418,4.75195,7.82666,2.85254,3.38428,6.375,5.58984,10.56836,6.61426l-11.46875,5.3252-24.07227-28.55811c2.23438.50488,4.27637.26611,6.12793-.71484.86133-.43701,2.54102-1.70703,5.03711-3.81152l26.59082-22.41357c3.08789-2.60303,4.9541-4.57471,5.59961-5.91406.64355-1.33936.89453-2.78027.75098-4.32422l15.13867,17.95996c-1.73145-.42285-3.36426-.38525-4.89844.11279-1.13281.37451-3.21973,1.84619-6.2666,4.41357Z" fill="#fff"/>
    <path d="M1070.0327,285.74174c5.24512,7.80811,7.20508,15.59033,5.88281,23.34521-1.3252,7.75439-5.70605,14.13086-13.14746,19.12939-7.44141,4.99805-15.17578,6.55957-23.19922,4.68457-8.02637-1.87549-14.73828-6.83252-20.1377-14.87012-5.05957-7.53369-6.89844-15.28076-5.5127-23.24268,1.38281-7.96289,5.7041-14.38037,12.96191-19.25586,7.30371-4.90527,14.99414-6.40625,23.07422-4.5,8.07812,1.90527,14.77148,6.80859,20.07812,14.70947ZM1061.96629,289.6602c-2.46875-3.67529-5.91699-5.60889-10.34473-5.7998-4.42871-.19238-9.09961,1.36328-14.01465,4.66406-2.93945,1.9751-5.50293,4.31201-7.6875,7.01367-2.18555,2.70068-3.58887,5.22559-4.20898,7.57666-1.03027,4.02441-.40332,7.73535,1.87988,11.13525,2.15918,3.21484,5.25098,5.1377,9.27441,5.76904,4.37598.66016,9.04492-.67627,14.00586-4.0083,5.83203-3.91797,9.82227-8.39746,11.96973-13.43945,2.03906-4.7041,1.74805-9.00781-.87402-12.91113Z" fill="#fff"/>
    <path d="M1093.06102,343.72807l-33.21094,17.08887c-4.57617,2.354-7.4502,5.29443-8.62207,8.82324l-10.82227-21.03418c2.06445.99121,4.1084,1.21387,6.13281.67139.93652-.23389,2.85645-1.09668,5.76074-2.59082l30.92383-15.91162c3.64062-1.87305,5.90527-3.39746,6.7959-4.57031.88965-1.17383,1.44922-2.50439,1.67969-3.99121l10.06348,19.55762c2.05078,3.98584,3.39453,6.84131,4.03418,8.56592,1.17676,3.37598,1.54688,6.45264,1.1084,9.22998-.76172,4.81006-3.55273,8.45557-8.37402,10.93652-4.52734,2.32959-9.05273,2.54199-13.5791.63965-4.52637-1.90332-8.20703-5.61035-11.04199-11.12012-.50684-.98486-1.1416-2.39941-1.90527-4.24707,2.6709,2.04736,5.21484,3.18164,7.63086,3.40137,2.41406.21924,5.09863-.43018,8.05078-1.94922,3.93652-2.0249,6.12109-4.6123,6.55566-7.75977.20312-1.53711-.18848-3.4502-1.18066-5.74023Z" fill="#fff"/>
    <path d="M1098.12645,417.32084l35.22852-2.08105,7.10645,19.31885c-2.77051-1.28027-5.06445-1.58594-6.88184-.91748-.88379.32471-2.81543,1.24121-5.79785,2.75146l-29.37305,14.87305c-5.27637,2.64795-8.63672,5.53418-10.08008,8.66016l-7.85156-21.34375c2.6748,1.02002,5.07617,1.13965,7.20605.35596.51855-.19043,1.64844-.7251,3.39062-1.60059l24.17871-12.1665-39.86426,2.45996c.50098-4.7251,1.25586-8.08301,2.26367-10.07422,1.00488-1.99219,3.09473-4.3667,6.2666-7.12549l19.61426-17.12012-25.14258,6.41895c-2.10156.53662-3.62012.97754-4.55469,1.32178-2.49316.9165-4.14746,2.91016-4.96289,5.98193l-5.95996-16.20264c1.8457.85352,3.56641,1.28174,5.16016,1.28564,1.43652.06006,3.80566-.31006,7.1084-1.11133l33.03027-7.81641c1.79004-.42383,3.25586-.84424,4.39844-1.26465,2.85547-1.05029,4.95703-3.03223,6.30371-5.94434l6.33203,17.21533-27.11914,24.12549Z" fill="#fff"/>
    <path d="M1118.39012,475.92631l-16.22559,3.88086c-.29297,2.34473.03125,5.48242.9707,9.41113,1.2998,5.43506,3.85156,9.20508,7.65527,11.31152l-13.66895-.05908-8.99707-37.6167c1.76953,1.4541,3.72852,2.15088,5.87695,2.09326.96582-.00439,3.03613-.38525,6.21289-1.14453l33.66113-8.05127c4.03613-.96533,6.62598-1.91309,7.76953-2.83984,1.14355-.92822,2.00391-2.0874,2.58203-3.47656l7.33691,30.6748c.2959,1.2373.68945,2.16748,1.17969,2.79004l-12.43164,2.97363c1.22266-1.54443,1.91016-3.07471,2.06055-4.58936.10547-1.21973-.11133-2.96045-.65137-5.2207l-1.29395-5.4082-13.72266,3.28223,2.14258,8.96045c.24414,1.02148.60547,1.81787,1.08301,2.38623l-11.86621,2.83838c1.11133-1.06299,1.75879-2.15674,1.94629-3.28174.12988-.88428-.01172-2.18799-.42383-3.90967l-1.19629-5.00488Z" fill="#fff"/>
    <path d="M1100.84715,523.09672l-2.15137-16.71094c3.07617,2.22559,7.11133,3.01807,12.10547,2.375l32.10547-4.13232c3.2373-.4165,5.69141-1.06738,7.36426-1.95215,1.6709-.88428,3.5-2.48779,5.49023-4.80713l2.29883,17.86377-32.25195,31.59961,24.12012-3.10449c2.79883-.36035,4.88281-.85205,6.25391-1.47412,1.74805-.72705,3.36621-2.02344,4.85547-3.88867l2.14062,16.62891c-1.72754-1.28418-3.46387-2.09375-5.20801-2.42627-1.74512-.3335-4.04492-.31641-6.89746.05078l-47.33496,6.09277c.53809-8.82861,4.47168-16.83936,11.80371-24.03027l21.0293-20.61572-24.61426,3.16846c-2.85449.36719-5.06836.93066-6.64453,1.69189-1.57617.75977-3.06445,1.98438-4.46484,3.6709Z" fill="#fff"/>
    <path d="M1154.33934,595.106l-36.09668.79639c-2.87695.06348-5.15332.39014-6.82715.98096-1.67578.58984-3.27148,1.6499-4.78711,3.17725l-.52148-23.64893c1.42188,1.79492,3.16309,2.89014,5.21973,3.28857.94531.19971,3.04883.26465,6.31348.19287l36.3457-.80225c.19238-1.27783.27246-2.71826.23633-4.32227-.0498-2.26904-.36914-4.14258-.9541-5.62402-.4707-1.20801-1.47461-2.87354-3.01562-4.99805l13.60059,3.104c-.04688.38721-.06445.85889-.05176,1.41211l.03906,9.29785.40625,18.42139c.17383,7.85449.44531,12.66406.81641,14.42773l-13.84082-2.68359c1.4209-.80664,2.41016-1.7832,2.96582-2.92969.55566-1.14746.80957-2.82715.76074-5.03955-.03809-1.71533-.24121-3.39844-.60938-5.05078Z" fill="#fff"/>
  </g>
  <g>
    <circle cx="600" cy="600" r="600" fill="none"/>
    <path d="M1081.11863,736.90629l5.21289,1.38965c-1.69336-3.31543-2.71289-6.14941-3.05859-8.50293-.3457-2.35547-.12695-5.00293.65723-7.94238,1.23926-4.65137,3.7627-8.10254,7.56934-10.35156,3.53516-2.09375,8.08301-2.39746,13.64453-.91504l28.79102,7.67578c3.95605,1.05469,6.65918,1.44434,8.10547,1.17285,1.44727-.27344,2.75488-.88379,3.9248-1.83105l-6.03027,22.61523c-.71289-1.62207-1.68555-2.91211-2.91895-3.87012-.95605-.71387-3.35742-1.58203-7.20703-2.6084l-25.2627-6.73535c-4.1709-1.11133-7.19531-1.26074-9.07324-.44336-1.87891.81641-3.13086,2.40039-3.75781,4.75391-.79883,2.99316-.16504,5.33789,1.90332,7.03516,1.45703,1.19043,4.21777,2.32715,8.28223,3.41113l24.05957,6.41406c3.95605,1.05469,6.6582,1.44531,8.10547,1.17285,1.44727-.27344,2.74707-.85645,3.90234-1.75098l-6.0293,22.61621c-.64551-1.66211-1.61133-2.97852-2.89746-3.95117-.90234-.69922-3.30566-1.56836-7.20801-2.6084l-33.60254-8.95898c-3.9043-1.04004-6.58887-1.44238-8.05469-1.20215-1.46777.23828-2.79297.8584-3.97559,1.86035l4.91797-18.44531Z" fill="#fff"/>
    <path d="M1107.17234,807.61039l-33.59668-13.22363c-2.67773-1.05371-4.90234-1.63281-6.67578-1.73535-1.77344-.10449-3.6543.25586-5.64258,1.0791l8.66309-22.01172c.61816,2.20605,1.7998,3.88867,3.54297,5.05176.79395.54883,2.70898,1.42285,5.74805,2.61914l33.82812,13.31445c.6709-1.10449,1.30176-2.40137,1.88965-3.89453.83105-2.1123,1.26172-3.96289,1.29492-5.55566.0332-1.2959-.24902-3.21973-.84961-5.77539l11.34277,8.12207c-.19336.33887-.39062.7666-.59375,1.28223l-3.55957,8.58887-6.74805,17.14648c-2.87793,7.31055-4.48633,11.85059-4.82617,13.62012l-11.72656-7.82617c1.62305-.19531,2.91211-.71289,3.86816-1.55469.95605-.84375,1.83984-2.29492,2.65039-4.35352.62793-1.59668,1.0918-3.22754,1.39062-4.89355Z" fill="#fff"/>
    <path d="M1068.54832,840.11625l-13.11719-6.97754c-2.83398-1.50684-4.71777-2.38379-5.65234-2.62988-2.06445-.59668-4.12305-.43848-6.17578.47559l10.99121-20.66406c.36328,2.26074,1.3457,4.06738,2.94531,5.4209.72754.63574,2.53027,1.72168,5.41406,3.25488l30.7041,16.33105c3.61426,1.92285,6.15918,2.91406,7.62988,2.97656,1.47168.06152,2.88379-.2373,4.23633-.89551l-10.99121,20.66504c-.32812-1.74219-.9834-3.21875-1.96777-4.43164-.76953-.91113-2.91211-2.30078-6.42969-4.17188l-9.74609-5.18359-7.09375,13.33691,9.74609,5.18359c3.56543,1.89648,6.09082,2.89453,7.57324,2.99414,1.4834.09863,2.91406-.20508,4.29297-.91309l-11.0293,20.73828c-.25293-1.76465-.89551-3.26562-1.92871-4.50391-.7207-.88574-2.86523-2.27539-6.43066-4.17188l-30.7041-16.33105c-3.66406-1.94922-6.17676-2.94141-7.53711-2.97461-1.6084-.04199-3.05078.25684-4.3291.89355l11.03027-20.73828c.31445,2.23535,1.2959,4.04199,2.94531,5.4209.77539.66211,2.5791,1.74805,5.41309,3.25488l13.11719,6.97754,7.09375-13.33691Z" fill="#fff"/>
    <path d="M1054.61766,925.09281c-5.46875,7.65234-12.06738,12.2207-19.79297,13.70508-7.72559,1.4834-15.23438-.37988-22.52734-5.5918s-11.47168-11.90527-12.5332-20.07715c-1.06348-8.17285,1.22168-16.19824,6.85156-24.07617,5.27637-7.38379,11.88477-11.8252,19.82617-13.32422,7.94141-1.50098,15.4668.29102,22.58105,5.375,7.1582,5.11523,11.26367,11.78906,12.31641,20.02344,1.05273,8.2334-1.1875,16.22168-6.72168,23.96582ZM1048.1157,918.91605c2.5752-3.60254,3.17383-7.50977,1.79785-11.72266-1.375-4.21387-4.47168-8.04199-9.28906-11.48438-2.88086-2.05957-5.96875-3.6377-9.26562-4.73438-3.2959-1.09863-6.15332-1.52539-8.57227-1.28125-4.13086.44824-7.38477,2.33887-9.7666,5.6709-2.25098,3.15137-2.96582,6.7207-2.14453,10.70996.91895,4.3291,3.80957,8.23047,8.67188,11.70605,5.71582,4.08496,11.31152,6.24805,16.78613,6.4873,5.12109.25781,9.04883-1.52637,11.78223-5.35156Z" fill="#fff"/>
    <path d="M968.5659,937.8848l15.71484-17.00879c-.22363,2.2793.2666,4.27637,1.46973,5.99121.54102.7998,2.00977,2.30859,4.4082,4.52441l25.54395,23.59961c3.00781,2.77832,5.21582,4.38477,6.62305,4.81836s2.84863.50391,4.3252.21094l-11.15234,12.07129c-5.29492,5.73047-8.7168,9.29199-10.26758,10.68457s-3.26758,2.49805-5.1543,3.31738c-2.69727,1.12402-5.44434,1.46777-8.24121,1.03027-2.79785-.4375-5.21289-1.59473-7.24414-3.47168-4.6748-4.31836-5.63672-10.33105-2.88672-18.03516-3.36523-.92578-10.50586-2.24805-21.41992-3.96875-4.72852-.75293-8.96289-.89941-12.7041-.4375,2.67578-3.62988,5.23438-6.7666,7.6748-9.4082,2.29004-2.47949,4.25488-4.03516,5.89453-4.66699,1.63867-.63379,3.97559-.7168,7.00879-.24805,3.9375.54785,11.25879,2.49121,21.96289,5.82617l-10.60742-9.7998c-2.3584-2.17773-3.97656-3.52344-4.85938-4.03711-1.80371-1.06445-3.83398-1.39551-6.08887-.99219ZM1007.19188,968.48539l-14.57129-13.46191c-1.58008,2.60742-2.24121,5.21777-1.98047,7.83203.25977,2.6123,1.42676,4.87695,3.49902,6.79199,2.92676,2.70312,5.89258,3.44727,8.89941,2.23242,1.19434-.47852,2.43066-1.4082,3.70703-2.79004.18848-.2041.33594-.40625.44629-.60449Z" fill="#fff"/>
    <path d="M929.21922,976.51176l17.30762-15.88086c-.41113,2.25293-.08594,4.28418.97168,6.09277.47266.8418,1.8125,2.46582,4.02051,4.87207l23.5127,25.62402c2.76758,3.0166,4.83594,4.79883,6.20215,5.34766,1.36719.54785,2.79785.73633,4.29395.56641l-17.30762,15.88086c.34961-1.74805.24316-3.37695-.31836-4.88965-.42188-1.11523-1.97949-3.13965-4.67383-6.0752l-23.5127-25.62402c-2.16992-2.36523-3.67188-3.83887-4.50879-4.42285-1.71094-1.20996-3.70703-1.70703-5.9873-1.49121Z" fill="#fff"/>
    <path d="M931.9868,1035.85648l-22.29395-28.39941c-1.77734-2.26367-3.4043-3.88867-4.88086-4.87305-1.47754-.9873-3.2832-1.62793-5.41406-1.92383l18.60645-14.60645c-.58301,2.21484-.41504,4.26465.50098,6.14941.40723.87598,1.61719,2.59766,3.63379,5.16699l22.44824,28.59473c1.1377-.61328,2.33789-1.41309,3.59961-2.40332,1.78516-1.40234,3.09277-2.78125,3.92773-4.13867.68359-1.10059,1.41309-2.90332,2.18848-5.41113l5.67676,12.74316c-.33789.19434-.72559.46387-1.16113.80566l-7.41406,5.60938-14.49414,11.37793c-6.17969,4.85156-9.86328,7.95508-11.05176,9.30957l-6.15723-12.68262c1.49805.65234,2.87207.8584,4.12305.61523,1.25098-.24414,2.74707-1.04883,4.4873-2.41504,1.34961-1.05957,2.57422-2.23242,3.6748-3.51855Z" fill="#fff"/>
    <path d="M879.90477,1045.70316l-7.90723-12.08496c-1.60645-2.45508-3.09473-4.22461-4.4668-5.31055-1.37109-1.08691-3.10742-1.86914-5.20508-2.34668l19.79395-12.95215c-.77051,2.15723-.78027,4.21289-.03027,6.16992.33105.90723,1.38867,2.72754,3.17676,5.45996l8.04297,12.29297,23.05176,12.49121c2.73438,1.4502,4.59961,2.37988,5.59375,2.78809,1.22363.4541,2.66406.73633,4.32031.84277l-17.01562,11.13379-20.11035-11.93652,1.55371,12.07617c.31641,2.50391.80762,4.26562,1.47461,5.28516.99902,1.52734,2.66602,2.35449,4.99707,2.48242l-13.19629,8.63477-4.07324-35.02637Z" fill="#fff"/>
  </g>
  <g>
    <circle cx="600" cy="600" r="600" fill="none"/>
    <path d="M501.22654,96.15727l-5.52344-13.98389c7.30762,4.26953,14.86182,5.8208,22.66504,4.6543,6.97021-1.04199,10.08936-4.02441,9.35303-8.9502-.29639-1.98145-1.19189-3.48291-2.68408-4.50293-1.49268-1.01807-4.67676-2.30713-9.55225-3.86816-7.75342-2.43604-12.90186-4.51074-15.4458-6.22363-4.42725-2.93359-7.05664-7.18408-7.88818-12.74805-.89844-6.01074.65381-11.14697,4.66016-15.4082,4.00488-4.25977,9.8125-6.95898,17.42432-8.09717,6.0752-.9082,11.94824-.77148,17.6167.40723l1.76416,11.7998c-5.69434-2.22168-10.68408-3.0127-14.96826-2.37207-2.75049.41113-4.85449,1.31396-6.31348,2.70898-1.4585,1.39502-2.04492,3.05176-1.75781,4.9707.23877,1.59912,1.08057,2.86328,2.52783,3.79004,1.44629.92871,4.04297,1.89697,7.79053,2.90576,7.34717,1.91016,12.8335,4.06445,16.4624,6.46436,4.93164,3.25195,7.82373,7.72314,8.6748,13.41504,1.03223,6.90723-.87402,12.75049-5.7168,17.52783-4.33496,4.24463-10.7876,7.00684-19.35742,8.2876-6.26855.93701-12.84473.67725-19.73145-.77734Z" fill="#fff"/>
  </g>
  <g>
    <circle cx="600" cy="600" r="600" fill="none"/>
    <path d="M829.45262,71.1641l20.62402,10.37305c6.06641,3.05078,10.22559,5.35938,12.47754,6.92627,4.30078,2.96094,7.5332,6.39453,9.69238,10.30371,2.62012,4.72119,3.92383,9.86426,3.91113,15.43066-.01367,5.56738-1.3418,10.97998-3.98535,16.23633-2.93457,5.83594-6.9375,10.48193-12.00586,13.93994-5.06934,3.45947-10.49609,5.25293-16.2793,5.38428-3.64551.0498-7.60547-.71191-11.88086-2.28369-2.25488-.84326-5.92383-2.54443-11.00684-5.10107l-21.83691-10.98291c2.63184-.48438,4.7168-1.68066,6.25488-3.58594.72363-.86572,1.94434-3.00195,3.65918-6.41162l18.08691-35.9624c2.26562-4.50635,3.41504-7.62012,3.44824-9.34033.0332-1.7207-.35449-3.36279-1.15918-4.92627ZM845.15184,91.32914l-20.30957,40.38232c1.47168,1.3916,3.01562,2.49365,4.63379,3.30762,4.96777,2.49854,9.61719,2.4668,13.94727-.09766,4.3291-2.5625,8.0332-6.90674,11.11328-13.03076,3.22559-6.4126,4.51855-12.22266,3.88086-17.42969-.63867-5.20703-3.125-8.90039-7.45703-11.07959-1.61816-.81348-3.55469-1.49707-5.80859-2.05225Z" fill="#fff"/>
  </g>
  <g>
    <circle cx="600" cy="600" r="600" fill="none"/>
    <path d="M1165.87547,661.23637l-3.1709,23.55273-55.99414,12.42773c-3.7627.79785-6.47656,1.5752-8.14355,2.3291-1.66797.75391-3.81055,2.12988-6.42773,4.12598l3.94727-29.32031c1.80664,3.04785,3.70508,4.70801,5.69238,4.97559,1.08887.14648,3.14062-.06738,6.1543-.63965l8.4375-1.60449,2.71777-20.18848-7.7002-3.875c-2.81055-1.42285-4.82422-2.21582-6.04102-2.37891-1.60254-.21582-3.75879.76562-6.46484,2.94629l2.80859-20.86035c1.95703,2.41602,3.66309,4.16309,5.11719,5.24023,1.45312,1.07617,4.07617,2.55469,7.86914,4.43555l37.86523,18.99609c3.54395,1.78223,5.79785,2.73828,6.75879,2.86816,1.92285.25879,4.11426-.75293,6.57422-3.03027ZM1126.24461,674.98637l21.04883-4.40918-19.18555-9.43359-1.86328,13.84277Z" fill="#fff"/>
  </g>
  <g>
    <circle cx="600" cy="600" r="600" fill="none"/>
    <path d="M526.29637,1092.99613l-8.89941,53.35254c-.6123,3.66992-.72656,6.35742-.34131,8.06348.49219,2.15137,1.5127,3.87207,3.06201,5.16406l-26.89844-4.48633c2.4458-1.17285,4.20459-2.59766,5.27539-4.27539,1.06934-1.67676,1.89209-4.23145,2.46484-7.66406l5.73047-34.35547c-2.02246-1.37109-5.14941-2.86621-9.38037-4.48438,12.00439-1.2207,21.6665-4.99219,28.98682-11.31445Z" fill="#fff"/>
    <path d="M548.55223,1164.94242l4.11133-7.61719c5.58643-1.07617,10.54346-3.26953,14.87061-6.5791,7.02246-5.38574,10.81982-13.29102,11.38867-23.71484.27783-5.0918-.29639-9.17871-1.71973-12.2627-1.4248-3.08105-3.51514-4.69824-6.27002-4.84863-2.33643-.12695-4.23682.83691-5.70068,2.88867-1.46436,2.05371-2.29736,4.93848-2.5,8.65234-.22266,4.07422.39502,7.33789,1.854,9.79004,1.45752,2.4541,3.56543,3.75488,6.32178,3.90527,1.13721.0625,2.53418-.19141,4.18799-.7627l-7.42969,8.96875c-.72559.08105-1.44775.10059-2.1665.06152-4.67334-.25488-8.48535-1.42285-11.43604-3.50781-5.7251-4.09863-8.37061-10.13086-7.93604-18.09961.36621-6.70898,2.94092-12.05273,7.7251-16.02734,4.78271-3.97559,10.77002-5.76758,17.95898-5.375,7.60791.41504,13.60107,3.19141,17.97852,8.32715,4.37549,5.13672,6.34766,11.68848,5.9126,19.65625-.42139,7.72852-3.05078,14.61523-7.88721,20.66016-4.83643,6.0459-11.29883,10.50195-19.38672,13.36426-6.06494,2.13184-12.12354,3.03418-18.17432,2.7041-.59961-.0332-1.1665-.09473-1.70264-.18359Z" fill="#fff"/>
    <path d="M610.74461,1167.14066l3.2666-8.01562c5.43848-1.67285,10.12988-4.38672,14.0752-8.14355,6.40234-6.11035,9.32617-14.37793,8.76855-24.80371-.27246-5.0918-1.2832-9.09277-3.03027-12.00488-1.74805-2.91016-4.00098-4.29297-6.75586-4.14551-2.33691.125-4.12207,1.28809-5.35645,3.48633-1.23438,2.19922-1.75293,5.15625-1.55371,8.87012.21777,4.0752,1.18359,7.25293,2.89746,9.53418,1.71387,2.28223,3.94922,3.34863,6.70605,3.20117,1.1377-.06055,2.49902-.46289,4.08105-1.20898l-6.41992,9.71582c-.71289.16016-1.42871.25684-2.14746.2959-4.67383.24902-8.58887-.50195-11.74707-2.25684-6.13379-3.45703-9.41309-9.16992-9.83984-17.13867-.3584-6.70996,1.62598-12.2998,5.9541-16.7666,4.32617-4.46777,10.08594-6.89355,17.27539-7.27832,7.6084-.40625,13.86621,1.70801,18.77051,6.34277,4.90332,4.63574,7.57031,10.93652,7.99609,18.9043.41309,7.72949-1.45898,14.85938-5.61621,21.39062s-10.10254,11.65723-17.83496,15.37402c-5.7998,2.77344-11.72656,4.32227-17.77734,4.64551-.59961.03223-1.16992.03223-1.71191.00195Z" fill="#fff"/>
    <path d="M691.77488,1143.90629l-28.93945,4.82715,17.94043-52.71973,19.44141-3.24316,6.69238,40.125c2.48633-.41406,4.41797-.94922,5.7998-1.60547,1.38086-.65527,2.9043-1.82227,4.57129-3.5l-1.80273,12.16211-7.19141,1.2002.37012,2.21875c.49414,2.95996,1.05371,5.04102,1.68066,6.24414.62598,1.2041,1.92578,2.61426,3.89941,4.23047l-24.59082,4.10156c1.48926-1.64648,2.40918-3.24414,2.75879-4.79395.34961-1.54785.29395-3.71289-.1709-6.49512l-.45898-2.75195ZM690.39793,1135.65043l-4.76758-28.58496-10.50098,31.13184,15.26855-2.54688Z" fill="#fff"/>
  </g>
  <circle cx="408.86043" cy="1101.30043" r="15.91489" fill="#fff"/>
  <circle cx="799.13957" cy="1101.30043" r="15.91489" fill="#fff"/>
  <g>
    <path d="M464.46826,839.80807c11.07733,6.69306,34.76297,17.23023,34.76297,17.23023l-.63209-261.01728-144.10875-101.47145s-12.47156,22.02243-18.01248,38.61157c-5.53418,16.56677-4.42467,35.41757-4.42467,35.41757l98.91621,70.83945v176.13942s21.70864,17.12711,33.49881,24.25049" fill="blue"/>
    <path d="M701.42196,595.94414l-.63212,261.01728s29.49557-11.89325,40.57293-18.58405c11.7901-7.12339,25.9002-21.54281,25.9002-21.54281v-176.13935l98.99241-70.0147s-.88987-24.71667-4.60847-36.77355c-5.70458-18.48319-15.67013-38.53092-15.67013-38.53092l-144.55482,100.5681Z" fill="blue"/>
    <path d="M645.34413,566.06869l172.96098-121.84198s-18.98528-27.67769-30.83817-39.36922c-9.3402-9.21468-31.28424-23.80669-31.28424-23.80669l-156.42567,111.01118-155.53128-109.20675s-20.3212,10.6604-33.81262,25.53485c-15.67015,17.27722-28.30981,36.28945-28.30981,36.28945l175.64179,122.29249v306.85984s27.06803,3.77465,42.01192,3.60877c14.67495-.1614,43.7984-3.60877,43.7984-3.60877l1.7887-307.76318Z" fill="blue"/>
    <path d="M600.41313,333.01509c32.83756,0,59.45728,26.87756,59.45728,60.03567,0,33.15585-26.61971,60.03334-59.45728,60.03334s-59.45731-26.87749-59.45731-60.03334c0-33.15811,26.61971-60.03567,59.45731-60.03567" fill="blue"/>
    <path d="M552.3147,227.12459c-.0628.00903-.1233.01799-.18606.02695-20.48932,2.64492-40.44963,6.98887-59.76438,12.8436l-25.79489-58.55848c-8.97259,2.8736-17.82418,6.0139-26.53677,9.43884l-38.19246,17.18761c-7.55823,3.84638-14.99096,7.90344-22.29145,12.16899l25.95402,58.91712c-6.73338,4.15118-13.32556,8.51531-19.76979,13.07672-3.71636,2.62926-7.38117,5.33027-10.9989,8.09175-6.09905,4.65998-12.05464,9.50382-17.85782,14.52251-.29811.26-.60295.51105-.90107.77105l-13.18881-12.00311-34.55904-31.45012c-3.83068,3.42275-7.62323,6.88804-11.33289,10.44301l-46.31556,51.99098c-2.16749,2.85116-4.29914,5.7292-6.39491,8.63639l2.80184,2.5508,104.72609,76.3356s86.09498-125.28484,247.78361-126.69472c168.45341-1.47042,250.54064,127.59807,250.54064,127.59807l102.56305-77.22102,1.05124-.9593,2.03079-1.84699c-1.98817-2.74808-4.00548-5.4759-6.05419-8.17692l-15.75981-17.6897-29.0271-32.58426-1.86935-2.09803c-3.72537-3.56619-7.53138-7.04496-11.37995-10.47886l-47.76585,43.47108c-4.42685-3.84863-8.95242-7.58289-13.55418-11.22084-6.92614-5.47809-14.04731-10.71643-21.35227-15.69927-4.50087-3.06855-9.06453-6.04523-13.70214-8.91657-.31603-.19721-.62535-.39893-.94364-.59395l24.65846-55.97409,1.29784-2.94973c-7.13464-4.16247-14.3948-8.12534-21.77816-11.88881l-38.63627-17.38708c-8.7418-3.43171-17.62472-6.58323-26.63093-9.45902l-25.8016,58.57188c-1.47938-.446-2.96994-.86744-4.45829-1.29777-12.89073-3.72311-26.0549-6.78496-39.47234-9.10715-5.22041-.90554-10.47667-1.70347-15.77103-2.38266-.08516-.01122-.17033-.02463-.25775-.03584v-63.85735c-15.57375-1.67885-31.3851-2.5642-47.40491-2.5642-16.12068,0-32.03067.89883-47.70302,2.60005v63.85283Z" fill="blue"/>
    <path d="M300.71432,829.78869c.0381.04932.0762.09864.11431.14796,12.52983,16.47032,26.26109,31.63389,40.97637,45.47947l-37.67469,51.6794c6.9665,6.35681,14.10559,12.4738,21.41951,18.3263l33.93815,24.57326c7.10098,4.64207,14.32301,9.06674,21.6571,13.27398l37.90555-51.99544c6.9508,3.7724,14.01593,7.31393,21.17743,10.62907,4.1288,1.91423,8.29344,3.74551,12.48724,5.50504,7.0741,2.96998,14.23559,5.71802,21.47106,8.24638.37434.13226.74417.27122,1.11626.399l-3.77014,17.45658-9.88265,45.73725c4.8707,1.6161,9.7616,3.17393,14.68388,4.61967l68.06008,14.22663c3.54601.45503,7.09873.86745,10.65596,1.23506l.80019-3.70963,13.56317-129.11555s-151.24561-12.12412-233.30819-151.83512c-85.49648-145.55677-15.0739-281.37882-15.0739-281.37882l-117.97095-50.45557-1.35385-.43485-2.60907-.84055c-1.38075,3.1022-2.72563,6.21563-4.03465,9.34697l-7.39911,22.53129-13.62591,41.50083-.87866,2.67187c-1.21712,5.01869-2.31768,10.062-3.35996,15.12098l61.42532,19.74737c-1.10953,5.76731-2.07112,11.56375-2.91391,17.38038-1.26644,8.75295-2.23027,17.55747-2.8803,26.39333-.39898,5.44232-.68813,10.89359-.84951,16.35828-.01121.37212-.03138.74191-.04259,1.11403l-60.6677,6.5742-3.19635.34749c-.02689,8.27549.17932,16.56445.62089,24.85793l4.30139,42.245c1.40764,9.30887,3.1291,18.59975,5.14866,27.85701l63.48299-6.87908c.35415,1.50852.73521,3.01478,1.10954,4.52105,3.22772,13.05661,7.16823,26.02128,11.86859,38.83354,1.83129,4.98503,3.77016,9.94989,5.82783,14.88786.03362.08068.065.16137.09862.23983l-55.14696,31.92977c6.33664,14.36563,13.47798,28.53845,21.48676,42.45128,8.06034,13.99799,16.79087,27.36614,26.09746,40.12683l55.14472-31.92755Z" fill="blue"/>
    <path d="M946.98985,746.95485c.02463-.05825.04706-.11653.06943-.17481,7.95946-19.11528,14.18856-38.62282,18.79026-58.32313l63.46957,6.87682c2.00616-9.2259,3.7186-18.48541,5.11733-27.76289l4.25201-41.76084c.45728-8.4885.67023-16.97241.63664-25.44299l-63.85961-6.92163c-.21739-7.92361-.69034-15.82931-1.40762-23.70586-.41241-4.54342-.91231-9.07568-1.4906-13.59673-.97278-7.62777-2.17868-15.22188-3.61325-22.77118-.07395-.38772-.13674-.78001-.21294-1.1678l16.96126-5.45347,44.43941-14.28494c-1.04002-5.0388-2.13839-10.06645-3.35325-15.0627l-21.74231-66.21983c-1.38074-3.30619-2.79958-6.59664-4.25878-9.87143l-3.60648,1.15884-118.28927,52.77995s65.15286,137.40903-14.47319,278.52991c-82.95693,147.02715-235.46895,153.78071-235.46895,153.78071l15.41013,127.67653.30036,1.39418.58055,2.68754c3.36895-.35194,6.73116-.74195,10.08888-1.17006l23.15886-4.84159,42.65522-8.91657,2.74582-.57383c4.94245-1.45246,9.84903-3.01702,14.73768-4.64209l-13.6573-63.21625c5.53644-1.92093,11.02353-3.98308,16.46584-6.16179,8.19484-3.27482,16.27756-6.84098,24.23483-10.69409,4.89987-2.3737,9.75261-4.85055,14.55165-7.43945.32725-.17706.65894-.34517.984-.52227l36.01371,49.39982,1.8963,2.60236c7.16152-4.11534,14.21763-8.43914,21.15725-12.96917l34.33268-24.85793c7.3363-5.87713,14.50007-12.01652,21.48676-18.40025l-37.68592-51.69284c1.12751-1.06023,2.23703-2.14509,3.35099-3.22099,9.66074-9.3335,18.8889-19.23632,27.60374-29.72643,3.39135-4.08172,6.70875-8.24638,9.94318-12.50291.05158-.0695.10534-.13674.15918-.20624l55.14695,31.92755c9.23711-12.68674,17.90935-25.97418,25.91812-39.88478,8.06035-14.00021,15.2398-28.2672,21.60557-42.72695l-55.14469-31.92755Z" fill="blue"/>
  </g>
</svg>